<svg width="248" height="72" fill="none" xmlns="http://www.w3.org/2000/svg"><g opacity=".4"><mask id="a" maskUnits="userSpaceOnUse" x="-.528" y="13.36" width="245" height="44" fill="#000"><path fill="#fff" d="M-.528 13.36h245v44h-245z"/><path d="M15.808 55.768c-3.328 0-6.144-.533-8.448-1.6-2.304-1.11-4.267-2.475-5.888-4.096l4.224-5.952A23.5 23.5 0 009.664 47c1.45.768 3.05 1.152 4.8 1.152 2.09 0 3.755-.533 4.992-1.6 1.237-1.067 1.856-2.645 1.856-4.736 0-2.048-.597-3.605-1.792-4.672-1.152-1.067-2.688-1.6-4.608-1.6-.597 0-1.13.043-1.6.128-.47.043-.939.15-1.408.32-.427.17-.896.384-1.408.64-.47.256-1.003.576-1.6.96l-4.224-2.688L5.824 14.36h23.04v7.936H13.952l-.704 7.616a9.88 9.88 0 012.176-.704 10.33 10.33 0 012.368-.256c1.75 0 3.392.256 4.928.768 1.579.512 2.965 1.28 4.16 2.304 1.195 1.024 2.133 2.325 2.816 3.904.683 1.579 1.024 3.456 1.024 5.632 0 2.261-.405 4.267-1.216 6.016-.81 1.75-1.899 3.243-3.264 4.48-1.365 1.195-2.965 2.112-4.8 2.752-1.792.64-3.67.96-5.632.96zm42.785 0a19.79 19.79 0 01-5.632-.832 12.913 12.913 0 01-4.992-2.944l3.456-5.504c.768.597 1.685 1.11 2.752 1.536 1.11.384 2.219.576 3.328.576 2.09 0 3.797-.512 5.12-1.536 1.365-1.024 2.24-2.752 2.624-5.184H54.24v-6.208h10.88c-.427-2.176-1.259-3.712-2.496-4.608-1.237-.939-2.816-1.408-4.736-1.408-1.067 0-2.048.17-2.944.512a9.508 9.508 0 00-2.496 1.344l-4.032-5.376c1.11-1.11 2.539-1.984 4.288-2.624 1.792-.683 3.712-1.024 5.76-1.024 2.219 0 4.288.341 6.208 1.024a13.233 13.233 0 014.992 3.136c1.45 1.365 2.581 3.093 3.392 5.184.81 2.048 1.216 4.48 1.216 7.296 0 2.773-.405 5.205-1.216 7.296-.768 2.048-1.856 3.776-3.264 5.184-1.408 1.365-3.072 2.41-4.992 3.136-1.92.683-3.99 1.024-6.208 1.024zM85.82 55V30.616h-9.344v-7.36h28.16v7.36h-9.408V55H85.82zm31.402.768c-1.45 0-2.773-.256-3.968-.768a8.347 8.347 0 01-2.944-1.984c-.81-.896-1.45-1.92-1.92-3.072-.426-1.152-.64-2.41-.64-3.776 0-3.328 1.408-5.93 4.224-7.808 2.816-1.877 7.36-3.136 13.632-3.776-.085-1.408-.512-2.517-1.28-3.328-.725-.853-1.962-1.28-3.712-1.28-1.365 0-2.73.256-4.096.768-1.322.512-2.752 1.216-4.288 2.112l-3.392-6.208a33.63 33.63 0 016.4-3.008c2.262-.768 4.651-1.152 7.168-1.152 4.096 0 7.211 1.173 9.344 3.52 2.176 2.304 3.264 5.91 3.264 10.816V55h-7.68l-.64-3.264h-.256a21.301 21.301 0 01-4.288 2.944c-1.493.725-3.136 1.088-4.928 1.088zm3.2-7.296c1.067 0 1.984-.235 2.752-.704.768-.47 1.579-1.13 2.432-1.984v-5.568c-3.328.47-5.632 1.152-6.912 2.048-1.28.896-1.92 1.963-1.92 3.2 0 1.024.32 1.792.96 2.304.683.47 1.579.704 2.688.704zM142.972 55V23.256h28.416V55h-9.408V30.616h-9.6V55h-9.408zm50.382.768a16.03 16.03 0 01-5.824-1.088 15.568 15.568 0 01-4.992-3.264c-1.408-1.408-2.538-3.136-3.392-5.184-.853-2.09-1.28-4.459-1.28-7.104 0-2.645.427-4.992 1.28-7.04.854-2.09 1.984-3.84 3.392-5.248a14.716 14.716 0 014.992-3.2 15.246 15.246 0 015.824-1.152c2.006 0 3.926.384 5.76 1.152a14.045 14.045 0 014.928 3.2c1.451 1.408 2.603 3.157 3.456 5.248.854 2.048 1.28 4.395 1.28 7.04 0 2.645-.426 5.013-1.28 7.104-.853 2.048-2.005 3.776-3.456 5.184a14.833 14.833 0 01-4.928 3.264 15.521 15.521 0 01-5.76 1.088zm0-7.616c1.92 0 3.371-.81 4.352-2.432.982-1.621 1.472-3.819 1.472-6.592 0-2.773-.49-4.97-1.472-6.592-.981-1.621-2.432-2.432-4.352-2.432-1.962 0-3.434.81-4.416 2.432-.938 1.621-1.408 3.819-1.408 6.592 0 2.773.47 4.97 1.408 6.592.982 1.621 2.454 2.432 4.416 2.432zM215.222 55V23.256h13.504c1.792 0 3.456.15 4.992.448 1.536.256 2.88.725 4.032 1.408 1.152.64 2.048 1.493 2.688 2.56.683 1.067 1.024 2.39 1.024 3.968 0 1.365-.405 2.667-1.216 3.904-.81 1.237-2.176 2.112-4.096 2.624v.256c2.006.47 3.584 1.28 4.736 2.432 1.195 1.152 1.792 2.816 1.792 4.992 0 1.621-.362 3.03-1.088 4.224-.682 1.152-1.621 2.09-2.816 2.816-1.194.725-2.602 1.259-4.224 1.6-1.578.341-3.264.512-5.056.512h-14.272zm9.152-19.328h3.712c1.579 0 2.71-.256 3.392-.768.683-.555 1.024-1.323 1.024-2.304 0-.981-.341-1.75-1.024-2.304-.64-.555-1.749-.832-3.328-.832h-3.776v6.208zm0 13.12h4.544c1.707 0 2.902-.32 3.584-.96.726-.683 1.088-1.557 1.088-2.624 0-.939-.384-1.728-1.152-2.368-.725-.64-1.92-.96-3.584-.96h-4.48v6.912z"/></mask><path d="M15.808 55.768c-3.328 0-6.144-.533-8.448-1.6-2.304-1.11-4.267-2.475-5.888-4.096l4.224-5.952A23.5 23.5 0 009.664 47c1.45.768 3.05 1.152 4.8 1.152 2.09 0 3.755-.533 4.992-1.6 1.237-1.067 1.856-2.645 1.856-4.736 0-2.048-.597-3.605-1.792-4.672-1.152-1.067-2.688-1.6-4.608-1.6-.597 0-1.13.043-1.6.128-.47.043-.939.15-1.408.32-.427.17-.896.384-1.408.64-.47.256-1.003.576-1.6.96l-4.224-2.688L5.824 14.36h23.04v7.936H13.952l-.704 7.616a9.88 9.88 0 012.176-.704 10.33 10.33 0 012.368-.256c1.75 0 3.392.256 4.928.768 1.579.512 2.965 1.28 4.16 2.304 1.195 1.024 2.133 2.325 2.816 3.904.683 1.579 1.024 3.456 1.024 5.632 0 2.261-.405 4.267-1.216 6.016-.81 1.75-1.899 3.243-3.264 4.48-1.365 1.195-2.965 2.112-4.8 2.752-1.792.64-3.67.96-5.632.96zm42.785 0a19.79 19.79 0 01-5.632-.832 12.913 12.913 0 01-4.992-2.944l3.456-5.504c.768.597 1.685 1.11 2.752 1.536 1.11.384 2.219.576 3.328.576 2.09 0 3.797-.512 5.12-1.536 1.365-1.024 2.24-2.752 2.624-5.184H54.24v-6.208h10.88c-.427-2.176-1.259-3.712-2.496-4.608-1.237-.939-2.816-1.408-4.736-1.408-1.067 0-2.048.17-2.944.512a9.508 9.508 0 00-2.496 1.344l-4.032-5.376c1.11-1.11 2.539-1.984 4.288-2.624 1.792-.683 3.712-1.024 5.76-1.024 2.219 0 4.288.341 6.208 1.024a13.233 13.233 0 014.992 3.136c1.45 1.365 2.581 3.093 3.392 5.184.81 2.048 1.216 4.48 1.216 7.296 0 2.773-.405 5.205-1.216 7.296-.768 2.048-1.856 3.776-3.264 5.184-1.408 1.365-3.072 2.41-4.992 3.136-1.92.683-3.99 1.024-6.208 1.024zM85.82 55V30.616h-9.344v-7.36h28.16v7.36h-9.408V55H85.82zm31.402.768c-1.45 0-2.773-.256-3.968-.768a8.347 8.347 0 01-2.944-1.984c-.81-.896-1.45-1.92-1.92-3.072-.426-1.152-.64-2.41-.64-3.776 0-3.328 1.408-5.93 4.224-7.808 2.816-1.877 7.36-3.136 13.632-3.776-.085-1.408-.512-2.517-1.28-3.328-.725-.853-1.962-1.28-3.712-1.28-1.365 0-2.73.256-4.096.768-1.322.512-2.752 1.216-4.288 2.112l-3.392-6.208a33.63 33.63 0 016.4-3.008c2.262-.768 4.651-1.152 7.168-1.152 4.096 0 7.211 1.173 9.344 3.52 2.176 2.304 3.264 5.91 3.264 10.816V55h-7.68l-.64-3.264h-.256a21.301 21.301 0 01-4.288 2.944c-1.493.725-3.136 1.088-4.928 1.088zm3.2-7.296c1.067 0 1.984-.235 2.752-.704.768-.47 1.579-1.13 2.432-1.984v-5.568c-3.328.47-5.632 1.152-6.912 2.048-1.28.896-1.92 1.963-1.92 3.2 0 1.024.32 1.792.96 2.304.683.47 1.579.704 2.688.704zM142.972 55V23.256h28.416V55h-9.408V30.616h-9.6V55h-9.408zm50.382.768a16.03 16.03 0 01-5.824-1.088 15.568 15.568 0 01-4.992-3.264c-1.408-1.408-2.538-3.136-3.392-5.184-.853-2.09-1.28-4.459-1.28-7.104 0-2.645.427-4.992 1.28-7.04.854-2.09 1.984-3.84 3.392-5.248a14.716 14.716 0 014.992-3.2 15.246 15.246 0 015.824-1.152c2.006 0 3.926.384 5.76 1.152a14.045 14.045 0 014.928 3.2c1.451 1.408 2.603 3.157 3.456 5.248.854 2.048 1.28 4.395 1.28 7.04 0 2.645-.426 5.013-1.28 7.104-.853 2.048-2.005 3.776-3.456 5.184a14.833 14.833 0 01-4.928 3.264 15.521 15.521 0 01-5.76 1.088zm0-7.616c1.92 0 3.371-.81 4.352-2.432.982-1.621 1.472-3.819 1.472-6.592 0-2.773-.49-4.97-1.472-6.592-.981-1.621-2.432-2.432-4.352-2.432-1.962 0-3.434.81-4.416 2.432-.938 1.621-1.408 3.819-1.408 6.592 0 2.773.47 4.97 1.408 6.592.982 1.621 2.454 2.432 4.416 2.432zM215.222 55V23.256h13.504c1.792 0 3.456.15 4.992.448 1.536.256 2.88.725 4.032 1.408 1.152.64 2.048 1.493 2.688 2.56.683 1.067 1.024 2.39 1.024 3.968 0 1.365-.405 2.667-1.216 3.904-.81 1.237-2.176 2.112-4.096 2.624v.256c2.006.47 3.584 1.28 4.736 2.432 1.195 1.152 1.792 2.816 1.792 4.992 0 1.621-.362 3.03-1.088 4.224-.682 1.152-1.621 2.09-2.816 2.816-1.194.725-2.602 1.259-4.224 1.6-1.578.341-3.264.512-5.056.512h-14.272zm9.152-19.328h3.712c1.579 0 2.71-.256 3.392-.768.683-.555 1.024-1.323 1.024-2.304 0-.981-.341-1.75-1.024-2.304-.64-.555-1.749-.832-3.328-.832h-3.776v6.208zm0 13.12h4.544c1.707 0 2.902-.32 3.584-.96.726-.683 1.088-1.557 1.088-2.624 0-.939-.384-1.728-1.152-2.368-.725-.64-1.92-.96-3.584-.96h-4.48v6.912z" stroke="#45874E" stroke-width="2" mask="url(#a)"/></g></svg>