<svg width="248" height="57" fill="none" xmlns="http://www.w3.org/2000/svg"><path opacity=".4" d="M32.533 44.941c2.779-2.605 4.366-6.275 4.356-10.521.02-8.053-5.634-13.904-13.267-13.904-3.15 0-5.978 1.116-7.704 2.79l.877-8.492h17.847v-8.04H8.787l-.04.456-1.93 21.477-.04.456.45.081 7.656 1.372.306.055.184-.25c1.139-1.535 3.399-2.54 5.683-2.541 1.924.01 3.552.708 4.7 1.883 1.147 1.175 1.84 2.855 1.84 4.875 0 2.003-.679 3.663-1.804 4.82-1.125 1.156-2.722 1.84-4.616 1.84-3.223 0-5.706-2.005-5.884-4.842l-.03-.468H5.93l.012.511c.167 7.39 6.617 12.56 15.235 12.56 4.644 0 8.58-1.514 11.357-4.118zm38.054-18.923c.767.953 1.245 2.244 1.491 3.706h-8.134v6.01h8.13c-.245 1.4-.714 2.69-1.476 3.662-.846 1.079-2.074 1.792-3.867 1.802-2.723-.02-4.412-2.077-4.412-4.67v-.5h-8.617v.5c0 3.848 1.328 6.994 3.648 9.176 2.317 2.178 5.58 3.355 9.38 3.355 4.765 0 8.449-1.733 10.935-4.624 2.477-2.88 3.725-6.864 3.725-11.308v-.736c0-4.416-1.259-8.399-3.74-11.286-2.49-2.896-6.173-4.646-10.92-4.646-7.273 0-13.028 4.78-13.028 11.736v.5h8.617v-.5c0-1.197.451-2.157 1.206-2.825.76-.673 1.863-1.08 3.206-1.09 1.782.01 3.01.686 3.856 1.738zm12.398-1.9v.5h9.764v23.884h9.074V24.618h9.844v-7.662H82.985v7.162zm49.602 21.02v3.364h9.034V27.4c0-3.804-1.622-6.541-4.146-8.31-2.502-1.753-5.855-2.531-9.32-2.531-3.737 0-6.875.893-9.241 2.535-2.372 1.645-3.94 4.024-4.552 6.93l-.117.555.565.046 7.836.637.409.033.112-.395c.507-1.781 2.094-3.157 4.948-3.157 1.364 0 2.365.344 3.019.916.645.564 1.015 1.404 1.015 2.542v.12c0 .395-.101.652-.28.851-.194.215-.524.412-1.078.588-1.123.355-2.908.546-5.587.807-3.048.28-6.018.937-8.237 2.437-2.255 1.526-3.69 3.896-3.69 7.467 0 3.151 1.131 5.576 3.064 7.203 1.922 1.618 4.583 2.405 7.578 2.405 4.066 0 6.942-1.551 8.668-3.94zm14.606 2.864v.5h8.995V24.618h9.619v23.884h9.094V16.956h-27.708v31.046zm67.813 0v.5h15.534c3.876 0 6.965-.79 9.099-2.305 2.156-1.529 3.293-3.767 3.293-6.528 0-2.148-.855-4.083-2.441-5.525-1.102-1.002-2.545-1.756-4.277-2.19 1.195-.43 2.212-1.012 3.014-1.738 1.299-1.175 2.014-2.71 2.014-4.507 0-2.817-1.256-5.034-3.503-6.526-2.222-1.477-5.384-2.227-9.208-2.227h-13.525v31.046zm-88.661-5.77c-1.233 0-2.234-.288-2.914-.797-.662-.496-1.06-1.23-1.06-2.243 0-1.03.413-1.773 1.156-2.325.768-.572 1.91-.953 3.365-1.157.924-.129 2.156-.305 3.286-.535a17.085 17.085 0 001.591-.391c.151-.047.298-.096.44-.149v2.45c0 2.876-2.369 5.147-5.864 5.147zm68.618 6.867c4.753 0 8.65-1.63 11.356-4.505 2.704-2.872 4.178-6.94 4.178-11.745 0-4.834-1.474-8.913-4.177-11.788-2.708-2.878-6.605-4.502-11.357-4.502-4.752 0-8.649 1.624-11.356 4.502-2.704 2.875-4.178 6.954-4.178 11.788 0 4.804 1.474 8.873 4.178 11.745 2.707 2.875 6.604 4.505 11.356 4.505zm.04-7.563c-1.958 0-3.422-.885-4.417-2.4-1.01-1.536-1.546-3.74-1.546-6.347s.536-4.817 1.546-6.358c.996-1.52 2.46-2.41 4.417-2.41 1.914 0 3.358.887 4.346 2.408 1.001 1.543 1.537 3.754 1.537 6.36 0 2.606-.536 4.812-1.537 6.35-.987 1.515-2.431 2.397-4.346 2.397zm28.898-.378v-5.662h6.639c1.081 0 1.892.306 2.429.804.532.494.849 1.227.849 2.196 0 .854-.305 1.497-.83 1.936-.536.448-1.354.726-2.448.726h-6.639zm0-11.633v-5.086h4.63c1.25 0 2.195.271 2.814.709.6.424.922 1.024.922 1.794 0 .817-.316 1.437-.883 1.866-.584.443-1.479.717-2.674.717h-4.809z" stroke="#45874E"/></svg>