<svg width="155" height="32" fill="none" xmlns="http://www.w3.org/2000/svg"><g opacity=".85" fill="#2D392E"><path d="M42.63 24.448V20.56h.576c.444-.012.816-.258 1.116-.738.312-.48.552-1.284.72-2.412.18-1.14.3-2.682.36-4.626l.09-3.564h7.92v11.34h1.584v3.888h-1.44V22H44.07v2.448h-1.44zm2.736-3.888h6.426v-9.9h-4.806l-.054 2.322c-.036 1.512-.114 2.778-.234 3.798-.12 1.02-.288 1.836-.504 2.448-.216.612-.492 1.056-.828 1.332zM56.883 22v-9.378h1.584v7.254l5.256-7.272h1.44V22h-1.584v-7.11L58.395 22h-1.512zm13.745.126c-.912 0-1.686-.168-2.322-.504a3.615 3.615 0 01-1.44-1.44l1.296-.576c.216.384.522.684.918.9.408.216.9.324 1.476.324.684 0 1.224-.15 1.62-.45.396-.3.594-.702.594-1.206 0-.456-.162-.822-.486-1.098-.312-.288-.756-.438-1.332-.45h-.954v-1.044h1.008c.384 0 .696-.132.936-.396.252-.276.378-.618.378-1.026 0-.42-.15-.756-.45-1.008-.3-.264-.75-.396-1.35-.396-.948 0-1.626.384-2.034 1.152l-1.206-.648a3.18 3.18 0 011.296-1.314c.576-.324 1.248-.486 2.016-.486.924 0 1.68.222 2.268.666.588.432.882 1.044.882 1.836 0 .444-.108.858-.324 1.242a1.97 1.97 0 01-.918.846c.564.168.996.462 1.296.882.3.408.45.894.45 1.458 0 .864-.342 1.536-1.026 2.016-.672.48-1.536.72-2.592.72zm4.783-2.844c0-.6.168-1.116.504-1.548.348-.444.822-.786 1.422-1.026s1.296-.36 2.088-.36c.42 0 .864.036 1.332.108.468.06.882.156 1.242.288v-.684c0-.72-.216-1.284-.648-1.692-.432-.42-1.044-.63-1.836-.63-.516 0-1.014.096-1.494.288-.468.18-.966.444-1.494.792l-.576-1.116a7.383 7.383 0 011.836-.936 5.69 5.69 0 011.908-.324c1.2 0 2.148.336 2.844 1.008.696.66 1.044 1.584 1.044 2.772V20.2c0 .372.168.564.504.576V22a7.988 7.988 0 01-.414.054 2.524 2.524 0 01-.27.018c-.372 0-.654-.102-.846-.306a1.157 1.157 0 01-.306-.648l-.036-.594a4.005 4.005 0 01-1.602 1.224 4.876 4.876 0 01-1.962.432c-.624 0-1.182-.126-1.674-.378a3.038 3.038 0 01-1.152-1.044 2.74 2.74 0 01-.414-1.476zm6.12.666c.144-.168.258-.336.342-.504.084-.18.126-.33.126-.45v-1.17c-.768-.3-1.56-.45-2.376-.45-.804 0-1.458.162-1.962.486-.492.312-.738.744-.738 1.296 0 .3.078.594.234.882.168.276.408.504.72.684.324.18.72.27 1.188.27a3.5 3.5 0 001.404-.288c.444-.204.798-.456 1.062-.756zM86.098 22v-9.378h1.584v7.254l5.256-7.272h1.44V22h-1.584v-7.11L87.61 22h-1.512zm4.158-10.458c-.864 0-1.518-.204-1.962-.612a2.048 2.048 0 01-.666-1.548h1.116c0 .336.114.618.342.846.24.216.63.324 1.17.324.528 0 .9-.102 1.116-.306.216-.216.348-.504.396-.864h1.116c0 .612-.222 1.128-.666 1.548-.444.408-1.098.612-1.962.612zM96.89 22v-9.396h1.584v3.888h4.896v-3.888h1.584V22h-1.584v-4.104h-4.896V22H96.89zm10.491-4.194v-1.44h5.31v1.44h-5.31zm11.896 4.374c-.936 0-1.764-.222-2.484-.666a4.87 4.87 0 01-1.692-1.8 4.972 4.972 0 01-.612-2.43c0-.888.198-1.698.594-2.43a4.5 4.5 0 011.674-1.746c.72-.444 1.554-.666 2.502-.666.924 0 1.728.21 2.412.63.696.408 1.212.96 1.548 1.656l-1.548.486a2.516 2.516 0 00-1.008-1.026 2.805 2.805 0 00-1.44-.378 2.93 2.93 0 00-1.584.45c-.468.3-.84.714-1.116 1.242-.276.516-.414 1.11-.414 1.782 0 .66.138 1.26.414 1.8.288.528.666.948 1.134 1.26.48.312 1.008.468 1.584.468.372 0 .726-.066 1.062-.198.348-.132.648-.306.9-.522.264-.228.444-.474.54-.738l1.548.468c-.276.684-.78 1.248-1.512 1.692-.72.444-1.554.666-2.502.666zm5.791-.18v-9.378h1.584v7.254l5.256-7.272h1.44V22h-1.584v-7.11L126.581 22h-1.512zm13.097 0v-7.992h-3.24v-1.404h8.064v1.404h-3.24V22h-1.584zm6.397 0v-9.378h1.584v7.254l5.256-7.272h1.44V22h-1.584v-7.11L146.075 22h-1.512z"/><path fill-rule="evenodd" clip-rule="evenodd" d="M1.78 20.785l1.683-.553 1.432.899v3.833H5.97v-5.51l3.403-1.138 1.373.898v1.318l1.194.479v-3.234l1.314-.54v-1.976l.477.719.478-.48 1.79-9.223 1.792 9.224.477.479.478-.719v1.977l1.314.539v5.39l1.194-.48v-5.809l1.373-.898 3.403 1.138v6.109h1.074v-2.096l1.433-.899 1.684.553C30.726 19.284 31 17.673 31 16c0-8.284-6.716-15-15-15C7.716 1 1 7.716 1 16c0 1.673.274 3.282.78 4.785zm-.95.313A15.982 15.982 0 010 16C0 7.163 7.163 0 16 0s16 7.163 16 16-7.163 16-16 16a15.992 15.992 0 01-6.228-1.257A16.047 16.047 0 01.83 21.098z" opacity=".9"/></g></svg>