<?xml version="1.0" encoding="UTF-8"?><!DOCTYPE svg PUBLIC "-//W3C//DTD SVG 1.1//EN" "http://www.w3.org/Graphics/SVG/1.1/DTD/svg11.dtd"><svg xmlns="http://www.w3.org/2000/svg" xmlns:xlink="http://www.w3.org/1999/xlink"><defs><clipPath id="clip0"><path fill="currentColor" transform="translate(11.323 14)" d="M0 0h23.314v20H0z"/></clipPath><clipPath id="clip0"><path fill="currentColor" transform="translate(9.5 16.5)" d="M0 0h27.166v15.5H0z"/></clipPath><clipPath id="clip0"><path fill="currentColor" transform="translate(12 11)" d="M0 0h24.88v25H0z"/></clipPath></defs><symbol id="icon-close"><rect x="10.565" y="36.021" width="36" height="2" rx="1" transform="rotate(-45 10.565 36.02)" fill="#3F4A40"/><rect x="11.979" y="10.565" width="36" height="2" rx="1" transform="rotate(45 11.98 10.565)" fill="#3F4A40"/></symbol><symbol id="icon-delivery"><path d="M38.04 19.768h-3.188v-5.37a.597.597 0 00-.597-.596h-9.947V8.447a.597.597 0 00-.597-.597H1.761a.597.597 0 00-.597.597v20.101c0 .33.268.597.597.597h5.136a3.226 3.226 0 003.194 2.807 3.223 3.223 0 003.189-2.807h14.406a3.224 3.224 0 003.19 2.807 3.225 3.225 0 003.193-2.807h3.971c.33 0 .598-.267.598-.597v-8.183a.598.598 0 00-.598-.597zm-27.95 10.99c-1.119 0-2.03-.91-2.03-2.03 0-1.118.911-2.029 2.03-2.029a2.03 2.03 0 010 4.059zm0-5.252a3.225 3.225 0 00-3.124 2.445H2.358V9.044h20.756V27.95H13.21a3.222 3.222 0 00-3.12-2.445zm20.786 5.252a2.03 2.03 0 010-4.059c1.119 0 2.029.91 2.029 2.03 0 1.119-.91 2.029-2.03 2.029zm6.567-2.807H34a3.226 3.226 0 00-3.124-2.446 3.224 3.224 0 00-3.122 2.446h-3.446V14.995h9.35v5.37c0 .33.267.597.597.597h3.188v6.99z"/></symbol><symbol id="icon-guarantee"><path d="M25.246 15.53l-6.718 7.526-3.41-3.409a.597.597 0 10-.844.845l3.856 3.855a.595.595 0 00.422.175h.017a.597.597 0 00.429-.2l7.14-7.996a.597.597 0 10-.892-.795z"/><path d="M36.647 19.9a.592.592 0 00.019-.14c0-1.592-1.65-2.414-3.108-3.14-1.034-.515-2.102-1.048-2.387-1.72-.29-.685.12-1.802.514-2.883.551-1.505 1.12-3.062.07-4.111-1.03-1.03-2.536-.682-3.993-.343-1.02.236-2.075.48-2.777.183-.686-.29-1.256-1.19-1.808-2.06-.8-1.261-1.704-2.691-3.276-2.691-1.575 0-2.463 1.46-3.247 2.75-.543.895-1.105 1.82-1.79 2.11-.7.297-1.767.028-2.798-.231-1.468-.369-2.987-.752-4.02.282C7.005 8.95 7.51 10.513 8 12.027c.35 1.08.71 2.197.418 2.888-.285.674-1.306 1.202-2.295 1.713-1.4.724-2.986 1.544-2.986 3.132a.6.6 0 00.019.142.59.59 0 00-.019.142c0 1.587 1.587 2.408 2.987 3.131.988.511 2.01 1.04 2.294 1.713.292.692-.069 1.808-.418 2.889-.49 1.513-.995 3.077.048 4.12 1.033 1.034 2.551.652 4.02.282 1.03-.258 2.098-.526 2.797-.23.685.29 1.247 1.214 1.79 2.11.785 1.288 1.673 2.75 3.247 2.75 1.572 0 2.478-1.43 3.277-2.692.552-.87 1.121-1.77 1.806-2.06.705-.298 1.758-.054 2.778.183 1.456.338 2.963.688 3.992-.342 1.052-1.05.482-2.607-.069-4.113-.395-1.08-.804-2.197-.514-2.881.285-.672 1.353-1.205 2.387-1.72 1.457-.726 3.108-1.549 3.108-3.14a.584.584 0 00-.019-.143zm-3.62 2.213c-1.229.612-2.498 1.245-2.956 2.324-.472 1.118.019 2.46.493 3.757.441 1.207.858 2.347.346 2.858-.56.562-1.687.3-2.878.024-1.206-.28-2.452-.569-3.513-.12-1.029.435-1.7 1.496-2.35 2.521-.696 1.099-1.353 2.136-2.268 2.136-.903 0-1.545-1.057-2.226-2.176-.642-1.057-1.306-2.15-2.346-2.589-1.069-.453-2.331-.135-3.554.172-1.198.301-2.33.587-2.884.032-.527-.526-.152-1.684.244-2.91.416-1.287.847-2.618.382-3.72-.453-1.071-1.67-1.7-2.846-2.309-1.204-.622-2.341-1.21-2.341-2.07a.606.606 0 00-.02-.143.59.59 0 00.02-.142c0-.86 1.136-1.448 2.34-2.07 1.177-.609 2.394-1.237 2.846-2.31.465-1.1.035-2.432-.382-3.72-.396-1.225-.77-2.383-.243-2.91.553-.554 1.685-.269 2.883.033 1.222.306 2.485.625 3.554.172 1.04-.44 1.704-1.532 2.347-2.589.68-1.12 1.323-2.177 2.226-2.177.914 0 1.572 1.038 2.268 2.137.65 1.025 1.321 2.086 2.35 2.521 1.061.449 2.308.16 3.513-.12 1.19-.276 2.317-.538 2.878.024.512.511.095 1.651-.346 2.858-.475 1.297-.965 2.639-.492 3.758.456 1.078 1.726 1.711 2.954 2.323 1.258.626 2.446 1.219 2.446 2.07 0 .05.008.097.019.143a.587.587 0 00-.019.141c0 .853-1.188 1.445-2.446 2.071z"/></symbol><symbol id="icon-mac"><path d="M33.709 2H7.293A4.298 4.298 0 003 6.293v18.18a4.297 4.297 0 004.293 4.292h9.385v7.27H9.404a.585.585 0 100 1.169h22.194a.585.585 0 100-1.17h-7.275v-7.269h9.386A4.297 4.297 0 0038 24.473V6.293A4.297 4.297 0 0033.709 2zM7.293 3.17h26.416a3.126 3.126 0 013.121 3.123v13.785H4.17V6.293c0-1.722 1.4-3.123 3.123-3.123zm15.86 32.864H17.85v-7.269h5.305v7.27zm10.556-8.438H7.294a3.126 3.126 0 01-3.124-3.123v-3.225h32.66v3.225c0 1.722-1.4 3.123-3.121 3.123z"/><path d="M20.501 22.353c-1.208 0-2.19.982-2.19 2.188 0 1.207.982 2.189 2.19 2.189a2.19 2.19 0 002.188-2.189 2.19 2.19 0 00-2.188-2.188zm0 3.207a1.02 1.02 0 01-1.02-1.019 1.02 1.02 0 012.038 0 1.02 1.02 0 01-1.018 1.019z"/></symbol><symbol id="icon-manufacture"><path d="M20.063 13.125a6.945 6.945 0 00-6.938 6.938A6.945 6.945 0 0020.063 27 6.945 6.945 0 0027 20.063a6.946 6.946 0 00-6.937-6.938zm0 12.75a5.82 5.82 0 01-5.813-5.812 5.82 5.82 0 015.813-5.813 5.82 5.82 0 015.812 5.813 5.82 5.82 0 01-5.812 5.813z"/><path d="M37.022 17.25l-4.488-.678a12.74 12.74 0 00-.994-2.41l2.691-3.65a.563.563 0 00-.055-.731L30.72 6.325a.563.563 0 00-.731-.055L26.35 8.952a12.724 12.724 0 00-2.425-1.01L23.25 3.48a.562.562 0 00-.556-.48h-4.887a.562.562 0 00-.556.479l-.676 4.464c-.838.25-1.651.59-2.425 1.009L10.512 6.27a.563.563 0 00-.731.055L6.325 9.78a.563.563 0 00-.055.731l2.69 3.65c-.413.77-.747 1.578-.993 2.41l-4.488.679a.562.562 0 00-.479.556v4.887c0 .278.203.514.478.556l4.51.683c.25.822.582 1.62.993 2.378l-2.712 3.678a.563.563 0 00.055.731l3.456 3.456c.197.197.508.22.732.055l3.69-2.72c.754.405 1.546.732 2.362.977l.686 4.534a.562.562 0 00.556.479h4.888a.562.562 0 00.556-.479l.686-4.534a12.735 12.735 0 002.362-.977l3.69 2.72a.563.563 0 00.732-.055l3.456-3.456a.562.562 0 00.055-.731l-2.712-3.678c.411-.759.744-1.556.993-2.378l4.51-.683a.562.562 0 00.478-.556v-4.887a.562.562 0 00-.478-.556zm-.647 4.96l-4.388.664a.563.563 0 00-.46.41c-.263.972-.655 1.91-1.163 2.786a.562.562 0 00.034.616l2.64 3.581-2.772 2.772-3.592-2.648a.562.562 0 00-.614-.035c-.874.502-1.806.888-2.773 1.148a.563.563 0 00-.41.459l-.668 4.413h-3.92l-.667-4.413a.563.563 0 00-.41-.46 11.606 11.606 0 01-2.773-1.147.563.563 0 00-.614.035l-3.592 2.648-2.772-2.772 2.64-3.58a.563.563 0 00.034-.617c-.508-.876-.9-1.814-1.163-2.787a.563.563 0 00-.46-.409l-4.388-.664v-3.92l4.369-.66a.562.562 0 00.46-.412c.26-.981.65-1.93 1.162-2.818a.563.563 0 00-.035-.614l-2.62-3.552 2.772-2.772 3.541 2.61c.18.133.423.147.617.034.89-.517 1.843-.914 2.831-1.178a.562.562 0 00.41-.46l.658-4.343h3.92l.656 4.343a.562.562 0 00.411.46c.988.264 1.94.66 2.831 1.178.194.113.436.1.617-.033l3.541-2.61 2.772 2.77-2.618 3.553a.563.563 0 00-.035.614c.51.889.902 1.837 1.162 2.818a.563.563 0 00.46.412l4.368.66v3.92z"/></symbol><symbol id="icon-menu"><rect x="6" y="13" width="36" height="2" rx="1" fill="#3F4A40"/><rect x="6" y="23" width="36" height="2" rx="1" fill="#3F4A40"/><rect x="6" y="33" width="36" height="2" rx="1" fill="#3F4A40"/></symbol><symbol id="icon-telegram"><circle cx="24" cy="24" r="24" fill="currentColor"/><g clip-path="url(#clip0)"><path d="M33.897 14.037l-22.234 8.476c-.448.174-.454.87-.017 1.07l5.695 2.335 2.121 6.69c.127.36.576.481.866.233l3.257-3.032 6.193 4.108c.322.2.745.019.82-.352l4.027-18.913a.543.543 0 00-.728-.615zM20.508 27.185l-.361 3.439-1.72-5.294 12.126-7.963-10.045 9.818z" fill="#000" fill-opacity=".6"/></g></symbol><symbol id="icon-vk"><path d="M48 24c0 13.255-10.745 24-24 24S0 37.255 0 24 10.745 0 24 0s24 10.745 24 24z" fill="currentColor"/><g clip-path="url(#clip0)"><path d="M36.523 30.498a1.943 1.943 0 00-.092-.177c-.472-.849-1.372-1.891-2.701-3.126l-.029-.028-.014-.015-.014-.014h-.014c-.604-.575-.986-.962-1.146-1.16-.292-.377-.358-.759-.198-1.145.114-.292.538-.91 1.274-1.853.386-.5.692-.9.919-1.203 1.631-2.168 2.338-3.554 2.121-4.158l-.085-.141c-.056-.086-.203-.163-.438-.234-.236-.07-.538-.082-.905-.035l-4.074.029a1.162 1.162 0 00-.467.049 3.356 3.356 0 01-.07.035l-.057.043a.625.625 0 00-.156.149.946.946 0 00-.141.247 23.08 23.08 0 01-1.513 3.183c-.35.584-.67 1.092-.962 1.52-.292.43-.537.746-.735.948a5.11 5.11 0 01-.538.488c-.16.123-.283.174-.367.155a6.395 6.395 0 01-.24-.057.936.936 0 01-.32-.346 1.557 1.557 0 01-.162-.552 5.898 5.898 0 01-.05-.573c-.004-.16-.002-.386.008-.678.01-.293.014-.49.014-.594 0-.358.007-.747.021-1.167l.035-.997c.01-.245.015-.505.015-.778s-.017-.488-.05-.644a2.252 2.252 0 00-.148-.453.759.759 0 00-.29-.339 1.628 1.628 0 00-.474-.19c-.5-.114-1.137-.175-1.91-.185-1.754-.018-2.88.096-3.38.34a1.908 1.908 0 00-.538.425c-.17.207-.194.32-.07.339.565.085.966.288 1.201.608l.086.17c.065.123.131.34.198.65.066.312.108.656.127 1.033a10.98 10.98 0 010 1.768c-.047.49-.092.872-.134 1.145a2.296 2.296 0 01-.191.665 2.92 2.92 0 01-.17.312.246.246 0 01-.071.07c-.123.047-.25.071-.382.071s-.292-.066-.481-.198a3.354 3.354 0 01-.587-.545 7.253 7.253 0 01-.686-.969 16.745 16.745 0 01-.792-1.47l-.226-.411a34.913 34.913 0 01-.58-1.153 22.132 22.132 0 01-.651-1.464.939.939 0 00-.34-.453l-.07-.042a.958.958 0 00-.227-.12 1.53 1.53 0 00-.325-.092l-3.876.028c-.396 0-.664.09-.806.269l-.056.085a.458.458 0 00-.043.226c0 .104.029.231.085.382a46.64 46.64 0 001.846 3.847c.665 1.235 1.242 2.23 1.733 2.985.49.754.99 1.466 1.5 2.135.508.67.845 1.099 1.01 1.287.165.19.295.33.39.425l.353.34c.226.226.559.497.997.813.438.316.924.627 1.457.933a7.903 7.903 0 001.86.75 6.414 6.414 0 002.064.233h1.627c.33-.028.58-.132.75-.311l.056-.071a.956.956 0 00.106-.261c.033-.118.05-.248.05-.39a4.64 4.64 0 01.092-1.096c.07-.325.15-.57.24-.735a1.8 1.8 0 01.305-.418c.113-.113.193-.18.24-.205.047-.023.085-.04.114-.05.226-.075.492-.001.799.22.306.222.594.495.862.82.269.326.592.69.97 1.097.376.405.706.707.99.905l.283.17c.188.113.433.217.735.311s.566.118.792.07l3.62-.056c.36 0 .637-.059.835-.177.198-.117.316-.248.354-.39.038-.14.04-.3.007-.48a1.767 1.767 0 00-.099-.374z" fill="#000" fill-opacity=".6"/></g></symbol><symbol id="icon-whatsapp"><circle cx="24" cy="24" r="24" fill="currentColor"/><g clip-path="url(#clip0)" fill="#000" fill-opacity=".6"><path d="M33.256 14.633A12.307 12.307 0 0024.492 11c-6.828 0-12.385 5.557-12.388 12.387 0 2.184.57 4.315 1.654 6.193L12 36l6.567-1.722a12.377 12.377 0 005.92 1.508h.005c6.828 0 12.385-5.558 12.388-12.388a12.308 12.308 0 00-3.624-8.765zm-8.763 19.06h-.004c-1.848 0-3.66-.497-5.241-1.435l-.376-.223-3.897 1.022 1.04-3.8-.245-.39a10.273 10.273 0 01-1.574-5.48c.002-5.676 4.621-10.295 10.3-10.295 2.75 0 5.336 1.074 7.28 3.02a10.235 10.235 0 013.013 7.284c-.002 5.678-4.621 10.297-10.296 10.297z"/><path d="M30.14 25.981c-.309-.155-1.83-.903-2.114-1.007-.284-.103-.49-.155-.697.155-.206.31-.8 1.007-.98 1.214-.18.207-.361.232-.67.077-.31-.155-1.308-.481-2.49-1.536-.92-.821-1.541-1.835-1.722-2.144-.18-.31-.02-.478.136-.632.139-.139.31-.362.464-.542.154-.181.206-.31.31-.517.103-.206.051-.387-.026-.542-.078-.155-.697-1.679-.955-2.298-.25-.604-.506-.522-.696-.532-.18-.009-.387-.01-.593-.01-.207 0-.542.077-.826.387-.283.31-1.083 1.059-1.083 2.582 0 1.524 1.109 2.996 1.264 3.202.154.207 2.182 3.333 5.288 4.674.738.32 1.314.51 1.764.652.742.236 1.416.203 1.95.123.595-.089 1.831-.749 2.09-1.472.257-.723.257-1.343.18-1.472-.077-.13-.284-.207-.593-.362z"/></g></symbol></svg>