<?xml version="1.0" encoding="UTF-8"?><!DOCTYPE svg PUBLIC "-//W3C//DTD SVG 1.1//EN" "http://www.w3.org/Graphics/SVG/1.1/DTD/svg11.dtd"><svg xmlns="http://www.w3.org/2000/svg" xmlns:xlink="http://www.w3.org/1999/xlink"><defs>
<clipPath id="clip0">
<rect width="23.3141" height="20" fill="white" transform="translate(11.3232 14)"/>
</clipPath>

<clipPath id="clip0">
<rect width="27.1662" height="15.5" fill="white" transform="translate(9.5 16.5)"/>
</clipPath>

<clipPath id="clip0">
<rect width="24.8801" height="25" fill="white" transform="translate(12 11)"/>
</clipPath>
</defs><symbol id="icon-close" viewBox="0 0 48 48">
<path d="M36.785 11.605C36.005 10.825 34.745 10.825 33.965 11.605L24.185 21.365L14.405 11.585C13.625 10.805 12.365 10.805 11.585 11.585C10.805 12.365 10.805 13.625 11.585 14.405L21.365 24.185L11.585 33.965C10.805 34.745 10.805 36.005 11.585 36.785C12.365 37.565 13.625 37.565 14.405 36.785L24.185 27.005L33.965 36.785C34.745 37.565 36.005 37.565 36.785 36.785C37.565 36.005 37.565 34.745 36.785 33.965L27.005 24.185L36.785 14.405C37.545 13.645 37.545 12.365 36.785 11.605V11.605Z"/>
</symbol><symbol id="icon-delivery" viewBox="0 0 40 40">
<path d="M38.0401 19.7684H34.8516V14.3989C34.8516 14.0693 34.5842 13.8018 34.2546 13.8018H24.3083V8.44662C24.3083 8.11707 24.0409 7.84961 23.7113 7.84961H1.76108C1.43153 7.84961 1.16406 8.11707 1.16406 8.44662V28.5481C1.16406 28.8777 1.43153 29.1451 1.76108 29.1451H6.8974C7.10277 30.7256 8.45481 31.9519 10.0906 31.9519C11.7241 31.9519 13.0745 30.726 13.2795 29.1451H23.7117H27.6862C27.8912 30.7256 29.2421 31.9519 30.8763 31.9519C32.5121 31.9519 33.8638 30.726 34.0691 29.1451H38.0405C38.37 29.1451 38.6375 28.8777 38.6375 28.5481V20.365C38.6371 20.0355 38.3696 19.7684 38.0401 19.7684ZM10.0902 30.7579C8.97103 30.7579 8.06078 29.8476 8.06078 28.7288C8.06078 27.6096 8.97103 26.6994 10.0902 26.6994C11.2066 26.6994 12.1149 27.6096 12.1149 28.7288C12.1149 29.8476 11.2066 30.7579 10.0902 30.7579ZM10.0902 25.5057C8.58138 25.5057 7.31491 26.5489 6.96585 27.9515H2.35809V9.04364H23.1143V14.3985V20.365V27.9511H13.2102C12.8616 26.5489 11.5967 25.5057 10.0902 25.5057ZM30.8759 30.7579C29.7587 30.7579 28.8496 29.8476 28.8496 28.7288C28.8496 27.6096 29.7587 26.6994 30.8759 26.6994C31.9947 26.6994 32.905 27.6096 32.905 28.7288C32.9046 29.8476 31.9943 30.7579 30.8759 30.7579ZM37.4431 27.9511H33.9999C33.6504 26.5489 32.3844 25.5053 30.8759 25.5053C29.3686 25.5053 28.1034 26.5485 27.7543 27.9511H24.3083V20.365V14.9955H33.6576V20.365C33.6576 20.6946 33.9251 20.962 34.2546 20.962H37.4431V27.9511Z" fill="#81C784"/>
</symbol><symbol id="icon-guarantee" viewBox="0 0 40 40">
<path d="M25.246 15.5307L18.5276 23.0563L15.1182 19.6473C14.885 19.4141 14.5073 19.4141 14.274 19.6473C14.0408 19.8806 14.0408 20.2583 14.274 20.4915L18.13 24.3474C18.2418 24.4597 18.3938 24.5222 18.5523 24.5222C18.5578 24.5222 18.5634 24.5222 18.569 24.5218C18.7333 24.517 18.8882 24.4453 18.9976 24.3228L26.1371 16.3259C26.3568 16.08 26.3353 15.7027 26.0894 15.483C25.8426 15.2637 25.4661 15.2851 25.246 15.5307Z" fill="#81C784"/>
<path d="M36.647 19.9005C36.6581 19.8551 36.6657 19.8082 36.6657 19.7592C36.6657 18.168 35.0151 17.3457 33.5584 16.6197C32.5244 16.1047 31.4557 15.5717 31.1712 14.9003C30.8814 14.2149 31.2906 13.0981 31.6854 12.0175C32.2362 10.5118 32.8054 8.95523 31.755 7.90567C30.725 6.87562 29.2189 7.22428 27.7618 7.56299C26.7421 7.79941 25.687 8.04338 24.9845 7.74647C24.2987 7.45632 23.7288 6.55682 23.1775 5.68597C22.3779 4.42468 21.4725 2.99463 19.9007 2.99463C18.3262 2.99463 17.4378 4.45572 16.6545 5.74528C16.1109 6.6404 15.5485 7.56537 14.8635 7.85513C14.1634 8.15164 13.0971 7.88299 12.0663 7.62388C10.5976 7.25533 9.07922 6.87244 8.04679 7.90607C7.0036 8.94886 7.50908 10.5134 7.99863 12.0271C8.34808 13.1069 8.70907 14.2237 8.41694 14.915C8.13196 15.5893 7.11067 16.1174 6.12241 16.6285C4.72261 17.352 3.13574 18.1723 3.13574 19.76C3.13574 19.8094 3.1437 19.8567 3.15485 19.9025C3.1437 19.9479 3.13614 19.9948 3.13614 20.0438C3.13614 21.6314 4.72301 22.4517 6.1232 23.1753C7.11067 23.686 8.13236 24.2141 8.41733 24.8884C8.70947 25.5797 8.34848 26.6965 7.99903 27.7767C7.50987 29.29 7.004 30.8541 8.04679 31.8973C9.08002 32.9309 10.5984 32.5493 12.0667 32.1795C13.0979 31.9208 14.1646 31.6529 14.8643 31.9491C15.5489 32.2384 16.1113 33.1634 16.6549 34.0581C17.4386 35.3473 18.3266 36.8084 19.9011 36.8084C21.4729 36.8084 22.3787 35.3783 23.1779 34.117C23.7296 33.2462 24.2995 32.3467 24.9841 32.0565C25.6894 31.7588 26.7425 32.0032 27.7618 32.24C29.2181 32.5779 30.725 32.9282 31.7542 31.8977C32.8058 30.8478 32.2362 29.2907 31.6854 27.7855C31.2902 26.7049 30.8814 25.5881 31.1708 24.9035C31.4557 24.2316 32.5244 23.6987 33.5584 23.1837C35.0147 22.4581 36.6657 21.6354 36.6657 20.0442C36.6661 19.9936 36.6581 19.9463 36.647 19.9005ZM33.0263 22.1134C31.7984 22.7252 30.5288 23.358 30.0715 24.437C29.599 25.5554 30.0898 26.8971 30.5642 28.1942C31.0052 29.4006 31.4223 30.5409 30.9101 31.0519C30.3493 31.6139 29.2229 31.3524 28.0317 31.0762C26.8265 30.7968 25.5803 30.5075 24.5192 30.956C23.4904 31.3914 22.8189 32.4517 22.1694 33.477C21.4733 34.5755 20.8157 35.6131 19.9011 35.6131C18.998 35.6131 18.3556 34.556 17.675 33.4368C17.0331 32.3801 16.3688 31.2872 15.3292 30.8482C14.2605 30.3952 12.9976 30.7128 11.7749 31.0205C10.5769 31.321 9.44539 31.6068 8.89097 31.0519C8.3644 30.5258 8.73853 29.3684 9.13455 28.1429C9.55126 26.8553 9.98151 25.5236 9.51664 24.4223C9.0637 23.3508 7.84738 22.722 6.67126 22.1134C5.46728 21.4913 4.32977 20.9035 4.32977 20.0426C4.32977 19.9932 4.32181 19.9459 4.31067 19.8997C4.32181 19.8543 4.32937 19.8074 4.32937 19.7584C4.32937 18.8975 5.46649 18.3097 6.67047 17.6876C7.84699 17.0794 9.0637 16.4505 9.51624 15.3783C9.98111 14.2774 9.55087 12.9461 9.13415 11.6581C8.73813 10.4326 8.3636 9.27523 8.89097 8.74866C9.4442 8.19423 10.5757 8.47921 11.7745 8.7805C12.9964 9.08737 14.2593 9.40617 15.3284 8.95324C16.368 8.51383 17.0323 7.4209 17.675 6.36418C18.3552 5.24458 18.9976 4.18746 19.9007 4.18746C20.8153 4.18746 21.4729 5.22508 22.1686 6.32398C22.8185 7.34926 23.49 8.40955 24.5192 8.84538C25.5803 9.29393 26.8265 9.00458 28.0317 8.72478C29.2229 8.44856 30.3489 8.18707 30.9105 8.74945C31.4219 9.2601 31.0048 10.4 30.5638 11.6068C30.0894 12.9043 29.5986 14.246 30.0715 15.3648C30.528 16.4434 31.798 17.0762 33.0259 17.688C34.2836 18.3144 35.4717 18.9067 35.4717 19.7584C35.4717 19.8078 35.4796 19.8551 35.4908 19.9009C35.4796 19.9463 35.4721 19.9932 35.4721 20.0422C35.4721 20.8951 34.284 21.487 33.0263 22.1134Z" fill="#81C784"/>
</symbol><symbol id="icon-mac" viewBox="0 0 40 40">
<path d="M33.709 2H7.29296C4.92597 2 3 3.92596 3 6.29296V24.4732C3 26.8398 4.92558 28.7654 7.29296 28.7654H16.6783V36.0341H9.40377C9.0805 36.0341 8.81884 36.2957 8.81884 36.619C8.81884 36.9423 9.0805 37.2039 9.40377 37.2039H17.2632H23.7383H31.5978C31.9211 37.2039 32.1827 36.9423 32.1827 36.619C32.1827 36.2957 31.9211 36.0341 31.5978 36.0341H24.3233V28.7654H33.7086C36.0748 28.7654 38 26.8398 38 24.4732V6.29296C38.0004 3.92596 36.0752 2 33.709 2ZM7.29296 3.16985H33.709C35.4302 3.16985 36.8305 4.57094 36.8305 6.29296V20.0777H4.17024V6.29296C4.17024 4.57055 5.57094 3.16985 7.29296 3.16985ZM23.1538 36.0341H17.8485V28.7654H23.1538V36.0341ZM33.709 27.5956H23.7387H17.2636H7.29335C5.57133 27.5956 4.17024 26.1949 4.17024 24.4732V21.248H36.8305V24.4732C36.8305 26.1949 35.4302 27.5956 33.709 27.5956Z" fill="#81C784"/>
<path d="M20.501 22.353C19.2933 22.353 18.311 23.3349 18.311 24.5414C18.311 25.7479 19.2933 26.7298 20.501 26.7298C21.7079 26.7298 22.6894 25.7479 22.6894 24.5414C22.6894 23.3349 21.7079 22.353 20.501 22.353ZM20.501 25.56C19.9387 25.56 19.4809 25.103 19.4809 24.5414C19.4809 23.9799 19.9383 23.5229 20.501 23.5229C21.0625 23.5229 21.5195 23.9799 21.5195 24.5414C21.5195 25.103 21.0625 25.56 20.501 25.56Z" fill="#81C784"/>
</symbol><symbol id="icon-manufacture" viewBox="0 0 40 40">
<path d="M20.0626 13.1252C16.2372 13.1252 13.125 16.2374 13.125 20.0629C13.125 23.8884 16.2372 27.0005 20.0626 27.0005C23.8881 27.0005 27.0003 23.8884 27.0003 20.0629C27.0003 16.2374 23.8881 13.1252 20.0626 13.1252ZM20.0626 25.8755C16.8575 25.8755 14.25 23.2681 14.25 20.0629C14.25 16.8577 16.8575 14.2503 20.0626 14.2503C23.2678 14.2503 25.8753 16.8577 25.8753 20.0629C25.8753 23.2681 23.2678 25.8755 20.0626 25.8755Z" fill="#81C784"/>
<path d="M37.0222 17.2507L32.5341 16.5715C32.2874 15.7398 31.954 14.932 31.54 14.1621L34.2311 10.5122C34.3961 10.2883 34.3728 9.9774 34.1763 9.78052L30.7202 6.32482C30.5233 6.12832 30.2125 6.10469 29.9886 6.2697L26.3503 8.95176C25.577 8.53175 24.764 8.19349 23.9255 7.94261L23.2501 3.47851C23.2084 3.20325 22.9722 3 22.6939 3H17.8068C17.5286 3 17.2923 3.20325 17.2507 3.47851L16.5753 7.94261C15.7368 8.19349 14.9238 8.53212 14.1505 8.95176L10.5122 6.2697C10.2883 6.10469 9.9774 6.12794 9.78052 6.32482L6.32482 9.78052C6.12832 9.97703 6.10469 10.2883 6.2697 10.5122L8.96075 14.1621C8.54675 14.932 8.21336 15.7398 7.96661 16.5715L3.47851 17.2507C3.20325 17.2923 3 17.5286 3 17.8068V22.6939C3 22.9722 3.20325 23.2084 3.47814 23.2501L7.98836 23.9326C8.23774 24.7554 8.57037 25.5522 8.98101 26.3105L6.26932 29.9886C6.10432 30.2125 6.12794 30.5234 6.32445 30.7202L9.78015 34.1759C9.97665 34.3728 10.2879 34.3961 10.5118 34.2311L14.2019 31.5107C14.9564 31.9158 15.7484 32.2435 16.5644 32.4884L17.2503 37.0222C17.2919 37.2975 17.5282 37.5008 17.8064 37.5008H22.6936C22.9718 37.5008 23.2081 37.2975 23.2497 37.0222L23.9356 32.4884C24.7516 32.2435 25.5436 31.9158 26.2981 31.5107L29.9882 34.2311C30.2121 34.3961 30.523 34.3724 30.7199 34.1759L34.1759 30.7202C34.3724 30.5237 34.3961 30.2125 34.2307 29.9886L31.519 26.3105C31.93 25.5522 32.2626 24.7554 32.5116 23.9326L37.0219 23.2501C37.2967 23.2084 37.5 22.9722 37.5 22.6939V17.8068C37.5004 17.5289 37.2971 17.2923 37.0222 17.2507ZM36.3754 22.2102L31.9866 22.8743C31.7661 22.9077 31.5861 23.0682 31.5276 23.2831C31.2636 24.2562 30.8721 25.1937 30.364 26.0701C30.2515 26.264 30.2646 26.5059 30.3977 26.6863L33.0378 30.2672L30.2661 33.0389L26.6743 30.391C26.4943 30.2586 26.2535 30.2447 26.0604 30.3561C25.1862 30.8582 24.2536 31.2445 23.2872 31.5036C23.0716 31.5618 22.9103 31.7418 22.8769 31.963L22.2094 36.3765H18.2898L17.6223 31.963C17.5889 31.7421 17.4277 31.5618 17.2121 31.5036C16.2457 31.2445 15.313 30.8582 14.4389 30.3561C14.2457 30.2451 14.0046 30.259 13.825 30.391L10.2332 33.0389L7.46147 30.2672L10.1015 26.6863C10.2343 26.5059 10.2478 26.264 10.1353 26.0701C9.62714 25.1941 9.23564 24.2562 8.97163 23.2831C8.91313 23.0678 8.73312 22.9077 8.51262 22.8743L4.1239 22.2102V18.2906L8.49274 17.6298C8.71437 17.5964 8.89513 17.4344 8.9525 17.2177C9.21239 16.2367 9.60314 15.2886 10.1147 14.3999C10.226 14.2064 10.2122 13.9652 10.0798 13.7856L7.46147 10.2339L10.2332 7.46222L13.7744 10.0727C13.9547 10.2054 14.1966 10.2189 14.3909 10.106C15.2815 9.58852 16.2344 9.19213 17.2222 8.92775C17.4382 8.87 17.5994 8.68962 17.6328 8.46837L18.2898 4.12465H22.2094L22.8664 8.46837C22.8998 8.68962 23.0611 8.87 23.2771 8.92775C24.2648 9.19213 25.2174 9.58852 26.1084 10.106C26.3023 10.2193 26.5441 10.2054 26.7249 10.0727L30.2661 7.46222L33.0378 10.2339L30.4195 13.7856C30.2871 13.9652 30.2732 14.2064 30.3846 14.3999C30.8957 15.2886 31.2869 16.2367 31.5467 17.2177C31.6041 17.4344 31.7849 17.5961 32.0065 17.6298L36.3754 18.2906V22.2102Z" fill="#81C784"/>
</symbol><symbol id="icon-menu" viewBox="0 0 48 48">
<path d="M8 36H40C41.1 36 42 35.1 42 34C42 32.9 41.1 32 40 32H8C6.9 32 6 32.9 6 34C6 35.1 6.9 36 8 36ZM8 26H40C41.1 26 42 25.1 42 24C42 22.9 41.1 22 40 22H8C6.9 22 6 22.9 6 24C6 25.1 6.9 26 8 26ZM6 14C6 15.1 6.9 16 8 16H40C41.1 16 42 15.1 42 14C42 12.9 41.1 12 40 12H8C6.9 12 6 12.9 6 14Z"/>
</symbol><symbol id="icon-telegram" viewBox="0 0 48 48">
<circle cx="24" cy="24" r="24" fill="currentColor"/>
<g clip-path="url(#clip0)">
<path d="M33.8969 14.0374L11.6632 22.5131C11.2153 22.6871 11.2091 23.3827 11.6461 23.5822L17.3413 25.9181L19.4623 32.6076C19.5885 32.968 20.0375 33.0891 20.3275 32.8407L23.5851 29.8093L29.7782 33.9167C30.0995 34.1177 30.523 33.936 30.5981 33.5647L34.625 14.6517C34.7111 14.2308 34.2971 13.8821 33.8969 14.0374ZM20.5084 27.1849L20.1466 30.6237L18.4271 25.3301L30.5533 17.3669L20.5084 27.1849Z" fill="black" fill-opacity="0.6"/>
</g>

</symbol><symbol id="icon-vk" viewBox="0 0 48 48">
<path d="M48 24C48 37.2548 37.2548 48 24 48C10.7452 48 0 37.2548 0 24C0 10.7452 10.7452 0 24 0C37.2548 0 48 10.7452 48 24Z" fill="currentColor"/>
<g clip-path="url(#clip0)">
<path d="M36.5232 30.4976C36.4901 30.427 36.4595 30.3678 36.431 30.3207C35.9593 29.472 35.059 28.4299 33.7295 27.1947L33.701 27.1666L33.6869 27.1521L33.6729 27.1384H33.6588C33.0553 26.563 32.6733 26.1765 32.5133 25.9781C32.2211 25.6015 32.1549 25.2195 32.3153 24.833C32.429 24.5407 32.8531 23.9231 33.5886 22.9798C33.9751 22.4804 34.2814 22.0798 34.5079 21.7772C36.1392 19.6086 36.8461 18.2229 36.6294 17.6189L36.5443 17.4776C36.4877 17.3924 36.3413 17.3147 36.1057 17.244C35.8701 17.1733 35.5683 17.1621 35.2008 17.2089L31.1272 17.2378C31.033 17.2283 30.9387 17.2308 30.8441 17.2444C30.7498 17.2589 30.6886 17.2729 30.6601 17.287C30.6316 17.3015 30.6084 17.313 30.5894 17.3221L30.5328 17.3647C30.4857 17.3928 30.434 17.4424 30.3774 17.5135C30.3207 17.5842 30.2732 17.6665 30.236 17.7611C29.7928 18.9021 29.2885 19.9629 28.7226 20.9438C28.3737 21.5284 28.0529 22.0356 27.761 22.4643C27.4688 22.8938 27.2236 23.2096 27.0256 23.4118C26.8276 23.6143 26.6482 23.7776 26.4882 23.8995C26.3278 24.0227 26.205 24.074 26.1207 24.0554C26.0355 24.0368 25.9553 24.0178 25.8801 23.9983C25.7482 23.9136 25.6416 23.7983 25.5618 23.6519C25.4816 23.506 25.4274 23.322 25.3989 23.1005C25.3708 22.8789 25.3539 22.6879 25.3497 22.5275C25.3448 22.3671 25.3472 22.141 25.3568 21.8487C25.3663 21.5565 25.3708 21.3589 25.3708 21.2547C25.3708 20.8967 25.3778 20.5077 25.3923 20.0877C25.4064 19.6681 25.4184 19.3357 25.4274 19.0906C25.437 18.8459 25.4415 18.5863 25.4415 18.3126C25.4415 18.0398 25.425 17.8248 25.3919 17.669C25.3588 17.5135 25.3092 17.3631 25.2435 17.2163C25.1773 17.0704 25.0806 16.9571 24.9533 16.8773C24.826 16.7971 24.6681 16.7335 24.4795 16.6863C23.9793 16.5731 23.3431 16.5123 22.5701 16.5024C20.8161 16.4842 19.6892 16.5975 19.1894 16.8422C18.9914 16.9464 18.812 17.0873 18.652 17.2667C18.4821 17.4743 18.4585 17.5879 18.5813 17.6057C19.1472 17.6909 19.5478 17.8938 19.7835 18.2142L19.8686 18.3837C19.9343 18.5069 20.0005 18.7235 20.0666 19.0344C20.1328 19.3457 20.1749 19.6896 20.1939 20.067C20.2411 20.7553 20.2411 21.3444 20.1939 21.8351C20.1468 22.3258 20.1022 22.7073 20.0596 22.9802C20.017 23.2538 19.9534 23.475 19.8686 23.6449C19.7835 23.8152 19.7272 23.919 19.6987 23.9566C19.6702 23.9942 19.647 24.0178 19.628 24.0273C19.5052 24.074 19.3783 24.098 19.246 24.098C19.1138 24.098 18.9538 24.0318 18.7649 23.8995C18.5764 23.7681 18.3804 23.5862 18.1779 23.3551C17.9749 23.1244 17.7467 22.8012 17.4916 22.3861C17.237 21.9715 16.9728 21.4812 16.6996 20.9153L16.4735 20.5048C16.3321 20.2411 16.1386 19.8566 15.8935 19.3523C15.6483 18.8479 15.4313 18.3601 15.2428 17.8881C15.1671 17.6905 15.0543 17.5396 14.9034 17.4354L14.8327 17.3928C14.7856 17.3552 14.7099 17.3151 14.6062 17.2729C14.502 17.2304 14.3941 17.1998 14.2808 17.1807L10.4053 17.2089C10.0093 17.2089 9.74059 17.299 9.59921 17.478L9.54258 17.5627C9.51406 17.6103 9.5 17.6859 9.5 17.7893C9.5 17.8934 9.52852 18.0203 9.58516 18.1708C10.1511 19.5007 10.7662 20.783 11.4309 22.0178C12.0961 23.2534 12.6732 24.2484 13.1639 25.0025C13.6541 25.7573 14.1539 26.4688 14.6632 27.1384C15.1725 27.8081 15.5094 28.2368 15.6744 28.4253C15.8393 28.6142 15.9687 28.7556 16.0634 28.8499L16.4168 29.1897C16.6429 29.4158 16.9757 29.687 17.4139 30.0028C17.8525 30.3191 18.3378 30.6299 18.8707 30.9358C19.4031 31.2426 20.0236 31.4918 20.7305 31.6857C21.4378 31.8792 22.1261 31.9569 22.7954 31.9189H24.4221C24.7524 31.8908 25.0021 31.7874 25.1716 31.6076L25.2282 31.5369C25.2658 31.4807 25.3014 31.393 25.3344 31.2756C25.3671 31.1578 25.384 31.028 25.384 30.8866C25.3741 30.4811 25.4051 30.1153 25.4758 29.7903C25.5465 29.465 25.6267 29.2199 25.7164 29.0545C25.8061 28.89 25.907 28.7507 26.0207 28.6374C26.1339 28.5241 26.2137 28.4563 26.2613 28.4324C26.3084 28.4092 26.3464 28.3927 26.3745 28.3827C26.6006 28.3075 26.8669 28.3807 27.1736 28.6018C27.4799 28.8238 27.7676 29.0967 28.0363 29.4224C28.305 29.7478 28.6279 30.1128 29.0053 30.5187C29.3823 30.9243 29.7122 31.2256 29.9954 31.4236L30.2786 31.5939C30.4671 31.7068 30.7122 31.8106 31.014 31.9052C31.3158 31.9991 31.5799 32.023 31.806 31.9759L35.4269 31.9189C35.7853 31.9189 36.0635 31.8602 36.2615 31.7419C36.4595 31.625 36.5774 31.4943 36.615 31.3529C36.6526 31.2116 36.6551 31.052 36.622 30.8722C36.5889 30.6932 36.5559 30.5683 36.5232 30.4976Z" fill="black" fill-opacity="0.6"/>
</g>

</symbol><symbol id="icon-whatsapp" viewBox="0 0 48 48">
<circle cx="24" cy="24" r="24" fill="currentColor"/>
<g clip-path="url(#clip0)">
<path d="M33.2557 14.6331C30.9169 12.2914 27.8063 11.0012 24.4924 11C17.6644 11 12.1066 16.5569 12.1042 23.3874C12.1033 25.5708 12.6738 27.7021 13.7576 29.5804L12 36L18.5672 34.2775C20.3765 35.2646 22.4139 35.7846 24.487 35.7855H24.4919C31.3195 35.7855 36.8772 30.2277 36.8801 23.3977C36.8822 20.087 35.595 16.9748 33.2557 14.6331ZM24.4928 33.693H24.4886C22.6409 33.6922 20.8287 33.1957 19.248 32.2578L18.8718 32.0346L14.9746 33.0568L16.0146 29.2572L15.7699 28.8674C14.7394 27.2279 14.195 25.3335 14.1958 23.3878C14.1979 17.7106 18.8172 13.092 24.4965 13.092C27.2466 13.0929 29.8318 14.1656 31.7759 16.1117C33.7199 18.0578 34.7897 20.6447 34.7889 23.396C34.7868 29.074 30.1679 33.693 24.4928 33.693Z" fill="black" fill-opacity="0.6"/>
<path d="M30.1407 25.9812C29.8311 25.8262 28.3095 25.0776 28.0255 24.9742C27.742 24.8709 27.5353 24.8192 27.329 25.1293C27.1228 25.4393 26.5296 26.1362 26.3489 26.3429C26.1683 26.5496 25.9876 26.5752 25.6784 26.4202C25.3688 26.2652 24.3714 25.9386 23.1892 24.8837C22.269 24.0628 21.6477 23.0492 21.4671 22.7396C21.2864 22.4296 21.4476 22.2621 21.6027 22.108C21.742 21.9691 21.9123 21.7463 22.0669 21.5656C22.2215 21.385 22.2731 21.2556 22.3765 21.0493C22.4798 20.8426 22.4281 20.662 22.3508 20.507C22.2735 20.352 21.6543 18.8283 21.3964 18.2087C21.1451 17.6052 20.89 17.687 20.6999 17.6775C20.5196 17.6684 20.313 17.6667 20.1067 17.6667C19.9004 17.6667 19.5652 17.744 19.2812 18.0541C18.9976 18.3641 18.1978 19.1127 18.1978 20.6364C18.1978 22.16 19.3068 23.632 19.4618 23.8383C19.6164 24.045 21.6444 27.1713 24.7496 28.5122C25.4883 28.8314 26.0645 29.0215 26.5143 29.1641C27.2559 29.3997 27.9305 29.3667 28.4641 29.2869C29.059 29.198 30.2953 28.5383 30.5533 27.8153C30.8112 27.0923 30.8112 26.4723 30.7339 26.3433C30.6566 26.2139 30.4504 26.1362 30.1407 25.9812Z" fill="black" fill-opacity="0.6"/>
</g>

</symbol></svg>