<svg width="160" height="48" fill="none" xmlns="http://www.w3.org/2000/svg"><g opacity=".85" fill="#2D392E"><path d="M42.595 32.312V28.64h.544c.42-.011.77-.244 1.054-.697.295-.453.521-1.213.68-2.278.17-1.077.283-2.533.34-4.369l.085-3.366h7.48v10.71h1.496v3.672h-1.36V30h-8.959v2.312h-1.36zm2.584-3.672h6.069v-9.35h-4.539l-.051 2.193c-.034 1.428-.108 2.624-.221 3.587-.113.963-.272 1.734-.476 2.312-.204.578-.465.997-.782 1.258zM56.056 30v-8.857h1.496v6.851l4.964-6.868h1.36V30H62.38v-6.715L57.484 30h-1.428zm12.982.119c-.862 0-1.593-.159-2.193-.476a3.413 3.413 0 01-1.36-1.36l1.224-.544c.204.363.493.646.867.85.385.204.85.306 1.394.306.646 0 1.156-.142 1.53-.425.374-.283.56-.663.56-1.139 0-.43-.152-.776-.458-1.037-.295-.272-.714-.414-1.258-.425h-.901v-.986h.952c.362 0 .657-.125.884-.374.238-.26.357-.584.357-.969 0-.397-.142-.714-.425-.952-.284-.25-.709-.374-1.275-.374-.896 0-1.536.363-1.921 1.088l-1.14-.612a3.003 3.003 0 011.225-1.241c.544-.306 1.178-.459 1.904-.459.872 0 1.586.21 2.142.629.555.408.833.986.833 1.734 0 .42-.102.81-.306 1.173a1.86 1.86 0 01-.867.799c.532.159.94.436 1.224.833.283.385.425.844.425 1.377 0 .816-.323 1.45-.97 1.904-.634.453-1.45.68-2.447.68zm4.517-2.686c0-.567.159-1.054.476-1.462.329-.42.776-.742 1.343-.969.567-.227 1.224-.34 1.972-.34.397 0 .816.034 1.258.102.442.057.833.147 1.173.272v-.646c0-.68-.204-1.213-.612-1.598-.408-.397-.986-.595-1.734-.595-.487 0-.958.09-1.411.272-.442.17-.912.42-1.411.748l-.544-1.054a6.973 6.973 0 011.734-.884 5.375 5.375 0 011.802-.306c1.133 0 2.029.317 2.686.952.657.623.986 1.496.986 2.618V28.3c0 .351.159.533.476.544V30a6.88 6.88 0 01-.391.051 2.392 2.392 0 01-.255.017c-.351 0-.618-.096-.8-.289a1.093 1.093 0 01-.288-.612l-.034-.561a3.78 3.78 0 01-1.513 1.156 4.605 4.605 0 01-1.853.408c-.59 0-1.116-.119-1.581-.357a2.87 2.87 0 01-1.088-.986 2.588 2.588 0 01-.391-1.394zm5.78.629c.136-.159.244-.317.323-.476.08-.17.119-.312.119-.425v-1.105a6.116 6.116 0 00-2.244-.425c-.76 0-1.377.153-1.853.459-.465.295-.697.703-.697 1.224 0 .283.074.561.22.833.16.26.386.476.68.646.307.17.68.255 1.123.255.465 0 .907-.09 1.326-.272.42-.193.754-.43 1.003-.714zM83.648 30v-8.857h1.496v6.851l4.964-6.868h1.36V30h-1.496v-6.715L85.076 30h-1.428zm3.927-9.877c-.816 0-1.434-.193-1.853-.578a1.934 1.934 0 01-.629-1.462h1.054c0 .317.108.584.323.799.227.204.595.306 1.105.306.499 0 .85-.096 1.054-.289.204-.204.329-.476.374-.816h1.054c0 .578-.21 1.065-.629 1.462-.42.385-1.037.578-1.853.578zM93.841 30v-8.874h1.496v3.672h4.624v-3.672h1.496V30h-1.496v-3.876h-4.624V30h-1.496zm9.909-3.961v-1.36h5.015v1.36h-5.015zm11.235 4.131c-.884 0-1.666-.21-2.346-.629a4.598 4.598 0 01-1.598-1.7 4.688 4.688 0 01-.578-2.295c0-.839.187-1.604.561-2.295a4.25 4.25 0 011.581-1.649c.68-.42 1.467-.629 2.363-.629.872 0 1.632.198 2.278.595a3.606 3.606 0 011.462 1.564l-1.462.459a2.379 2.379 0 00-.952-.969 2.651 2.651 0 00-1.36-.357 2.77 2.77 0 00-1.496.425 3.019 3.019 0 00-1.054 1.173c-.261.487-.391 1.048-.391 1.683 0 .623.13 1.19.391 1.7.272.499.629.895 1.071 1.19.453.295.952.442 1.496.442.351 0 .685-.062 1.003-.187.328-.125.612-.289.85-.493.249-.215.419-.448.51-.697l1.462.442c-.261.646-.737 1.179-1.428 1.598-.68.42-1.468.629-2.363.629zm5.469-.17v-8.857h1.496v6.851l4.964-6.868h1.36V30h-1.496v-6.715L121.882 30h-1.428zm12.369 0v-7.548h-3.06v-1.326h7.616v1.326h-3.06V30h-1.496zm6.042 0v-8.857h1.496v6.851l4.964-6.868h1.36V30h-1.496v-6.715L140.293 30h-1.428z"/><path fill-rule="evenodd" clip-rule="evenodd" d="M1.78 28.785l1.683-.553 1.432.899v3.833H5.97v-5.51l3.403-1.138 1.373.898v1.318l1.194.479v-3.234l1.314-.54v-1.976l.477.719.478-.48 1.79-9.223 1.792 9.224.477.479.478-.719v1.977l1.314.539v5.39l1.194-.48v-5.809l1.373-.898 3.403 1.138v6.109h1.074v-2.096l1.433-.899 1.684.553C30.726 27.284 31 25.673 31 24c0-8.284-6.716-15-15-15C7.716 9 1 15.716 1 24c0 1.673.274 3.282.78 4.785zm-.95.313A15.982 15.982 0 010 24C0 15.163 7.163 8 16 8s16 7.163 16 16-7.163 16-16 16a15.992 15.992 0 01-6.228-1.257A16.047 16.047 0 01.83 29.098z" opacity=".9"/></g></svg>