<svg width="324" height="72" fill="none" xmlns="http://www.w3.org/2000/svg"><g opacity=".4"><mask id="a" maskUnits="userSpaceOnUse" x="1.304" y="12.592" width="320" height="55" fill="#000"><path fill="#fff" d="M1.304 12.592h320v55h-320z"/><path d="M17.984 55.768c-2.219 0-4.288-.363-6.208-1.088a14.84 14.84 0 01-4.928-3.264C5.44 50.008 4.331 48.28 3.52 46.232c-.81-2.09-1.216-4.459-1.216-7.104 0-2.645.448-4.992 1.344-7.04.896-2.09 2.09-3.84 3.584-5.248a15.657 15.657 0 015.312-3.2 17.388 17.388 0 016.272-1.152c1.963 0 3.69.32 5.184.96 1.536.64 2.901 1.45 4.096 2.432l-4.416 6.08c-1.493-1.237-2.923-1.856-4.288-1.856-2.304 0-4.117.81-5.44 2.432-1.323 1.621-1.984 3.819-1.984 6.592 0 2.773.661 4.97 1.984 6.592 1.365 1.621 3.072 2.432 5.12 2.432a7.036 7.036 0 002.944-.64 16.282 16.282 0 002.752-1.664l3.712 6.144c-1.579 1.365-3.285 2.347-5.12 2.944-1.835.555-3.627.832-5.376.832zM45.056 55v-5.376a415.762 415.762 0 007.104-6.784c2.176-2.133 4.032-4.117 5.568-5.952 1.578-1.877 2.794-3.605 3.648-5.184.896-1.621 1.343-3.157 1.343-4.608 0-2.005-.511-3.52-1.535-4.544-1.024-1.067-2.432-1.6-4.224-1.6-1.494 0-2.816.427-3.968 1.28a20.52 20.52 0 00-3.264 2.88l-5.12-5.056c2.005-2.133 4.053-3.733 6.144-4.8 2.09-1.11 4.586-1.664 7.487-1.664 2.006 0 3.82.32 5.44.96 1.665.597 3.094 1.472 4.288 2.624 1.195 1.11 2.112 2.453 2.752 4.032.64 1.579.96 3.35.96 5.312 0 1.707-.362 3.456-1.088 5.248-.725 1.75-1.706 3.52-2.944 5.312a54.985 54.985 0 01-4.16 5.312 135.286 135.286 0 01-4.8 5.184 61.836 61.836 0 013.393-.32 34.55 34.55 0 013.392-.192h8.192V55H45.055zm48.34.768c-2.176 0-4.16-.448-5.952-1.344-1.792-.939-3.328-2.304-4.608-4.096-1.237-1.792-2.219-4.01-2.944-6.656-.683-2.645-1.024-5.696-1.024-9.152 0-3.456.341-6.485 1.024-9.088.725-2.603 1.707-4.779 2.944-6.528 1.28-1.792 2.816-3.115 4.608-3.968 1.792-.896 3.776-1.344 5.952-1.344s4.16.448 5.952 1.344c1.792.853 3.307 2.176 4.544 3.968 1.28 1.75 2.261 3.925 2.944 6.528.725 2.603 1.088 5.632 1.088 9.088 0 3.456-.363 6.507-1.088 9.152-.683 2.645-1.664 4.864-2.944 6.656-1.237 1.792-2.752 3.157-4.544 4.096-1.792.896-3.776 1.344-5.952 1.344zm0-7.296c.81 0 1.557-.192 2.24-.576.683-.427 1.28-1.173 1.792-2.24.512-1.067.896-2.496 1.152-4.288.299-1.792.448-4.075.448-6.848 0-2.773-.15-5.035-.448-6.784-.256-1.792-.64-3.179-1.152-4.16-.512-1.024-1.11-1.728-1.792-2.112a4.492 4.492 0 00-2.24-.576 4.37 4.37 0 00-2.176.576c-.683.384-1.28 1.088-1.792 2.112-.512.981-.917 2.368-1.216 4.16-.299 1.75-.448 4.01-.448 6.784 0 2.773.15 5.056.448 6.848.299 1.792.704 3.221 1.216 4.288.512 1.067 1.11 1.813 1.792 2.24a4.37 4.37 0 002.176.576zm33.812 7.296c-2.176 0-4.16-.448-5.952-1.344-1.792-.939-3.328-2.304-4.608-4.096-1.237-1.792-2.218-4.01-2.944-6.656-.682-2.645-1.024-5.696-1.024-9.152 0-3.456.342-6.485 1.024-9.088.726-2.603 1.707-4.779 2.944-6.528 1.28-1.792 2.816-3.115 4.608-3.968 1.792-.896 3.776-1.344 5.952-1.344s4.16.448 5.952 1.344c1.792.853 3.307 2.176 4.544 3.968 1.28 1.75 2.262 3.925 2.944 6.528.726 2.603 1.088 5.632 1.088 9.088 0 3.456-.362 6.507-1.088 9.152-.682 2.645-1.664 4.864-2.944 6.656-1.237 1.792-2.752 3.157-4.544 4.096-1.792.896-3.776 1.344-5.952 1.344zm0-7.296c.811 0 1.558-.192 2.24-.576.683-.427 1.28-1.173 1.792-2.24.512-1.067.896-2.496 1.152-4.288.299-1.792.448-4.075.448-6.848 0-2.773-.149-5.035-.448-6.784-.256-1.792-.64-3.179-1.152-4.16-.512-1.024-1.109-1.728-1.792-2.112a4.489 4.489 0 00-2.24-.576c-.768 0-1.493.192-2.176.576-.682.384-1.28 1.088-1.792 2.112-.512.981-.917 2.368-1.216 4.16-.298 1.75-.448 4.01-.448 6.784 0 2.773.15 5.056.448 6.848.299 1.792.704 3.221 1.216 4.288.512 1.067 1.11 1.813 1.792 2.24a4.371 4.371 0 002.176.576zM148.605 55v-7.616h8.832V23.896h-7.616v-5.824c2.219-.427 4.096-.939 5.632-1.536a30.96 30.96 0 004.48-2.176h6.912v33.024h7.616V55h-25.856zm46.305 0V23.256h21.824v7.36h-12.416V55h-9.408zm39.069.768c-2.005 0-3.946-.363-5.824-1.088a15.568 15.568 0 01-4.992-3.264c-1.408-1.408-2.538-3.136-3.392-5.184-.853-2.09-1.28-4.459-1.28-7.104 0-2.645.427-4.992 1.28-7.04.854-2.09 1.984-3.84 3.392-5.248a14.718 14.718 0 014.992-3.2 15.246 15.246 0 015.824-1.152c2.006 0 3.926.384 5.76 1.152a14.047 14.047 0 014.928 3.2c1.451 1.408 2.603 3.157 3.456 5.248.854 2.048 1.28 4.395 1.28 7.04 0 2.645-.426 5.013-1.28 7.104-.853 2.048-2.005 3.776-3.456 5.184a14.833 14.833 0 01-4.928 3.264 15.52 15.52 0 01-5.76 1.088zm0-7.616c1.92 0 3.371-.81 4.352-2.432.982-1.621 1.472-3.819 1.472-6.592 0-2.773-.49-4.97-1.472-6.592-.981-1.621-2.432-2.432-4.352-2.432-1.962 0-3.434.81-4.416 2.432-.938 1.621-1.408 3.819-1.408 6.592 0 2.773.47 4.97 1.408 6.592.982 1.621 2.454 2.432 4.416 2.432zM261.415 55v11.008h-8.128l-.896-12.224V47.64h1.984a4.185 4.185 0 001.088-.896c.342-.427.662-1.067.96-1.92.299-.896.576-2.048.832-3.456.299-1.408.576-3.243.832-5.504l1.472-12.608h23.68V47.64h5.056v6.144l-.896 12.224h-8.064V55h-17.92zm4.8-17.024c-.213 2.09-.554 3.925-1.024 5.504-.469 1.579-1.002 2.965-1.6 4.16h10.24V30.616h-6.784l-.832 7.36zm35.507 17.792c-1.45 0-2.773-.256-3.968-.768a8.346 8.346 0 01-2.944-1.984c-.81-.896-1.45-1.92-1.92-3.072-.426-1.152-.64-2.41-.64-3.776 0-3.328 1.408-5.93 4.224-7.808 2.816-1.877 7.36-3.136 13.632-3.776-.085-1.408-.512-2.517-1.28-3.328-.725-.853-1.962-1.28-3.712-1.28-1.365 0-2.73.256-4.096.768-1.322.512-2.752 1.216-4.288 2.112l-3.392-6.208a33.63 33.63 0 016.4-3.008c2.262-.768 4.651-1.152 7.168-1.152 4.096 0 7.211 1.173 9.344 3.52 2.176 2.304 3.264 5.91 3.264 10.816V55h-7.68l-.64-3.264h-.256a21.301 21.301 0 01-4.288 2.944c-1.493.725-3.136 1.088-4.928 1.088zm3.2-7.296c1.067 0 1.984-.235 2.752-.704.768-.47 1.579-1.13 2.432-1.984v-5.568c-3.328.47-5.632 1.152-6.912 2.048-1.28.896-1.92 1.963-1.92 3.2 0 1.024.32 1.792.96 2.304.683.47 1.579.704 2.688.704z"/></mask><path d="M17.984 55.768c-2.219 0-4.288-.363-6.208-1.088a14.84 14.84 0 01-4.928-3.264C5.44 50.008 4.331 48.28 3.52 46.232c-.81-2.09-1.216-4.459-1.216-7.104 0-2.645.448-4.992 1.344-7.04.896-2.09 2.09-3.84 3.584-5.248a15.657 15.657 0 015.312-3.2 17.388 17.388 0 016.272-1.152c1.963 0 3.69.32 5.184.96 1.536.64 2.901 1.45 4.096 2.432l-4.416 6.08c-1.493-1.237-2.923-1.856-4.288-1.856-2.304 0-4.117.81-5.44 2.432-1.323 1.621-1.984 3.819-1.984 6.592 0 2.773.661 4.97 1.984 6.592 1.365 1.621 3.072 2.432 5.12 2.432a7.036 7.036 0 002.944-.64 16.282 16.282 0 002.752-1.664l3.712 6.144c-1.579 1.365-3.285 2.347-5.12 2.944-1.835.555-3.627.832-5.376.832zM45.056 55v-5.376a415.762 415.762 0 007.104-6.784c2.176-2.133 4.032-4.117 5.568-5.952 1.578-1.877 2.794-3.605 3.648-5.184.896-1.621 1.343-3.157 1.343-4.608 0-2.005-.511-3.52-1.535-4.544-1.024-1.067-2.432-1.6-4.224-1.6-1.494 0-2.816.427-3.968 1.28a20.52 20.52 0 00-3.264 2.88l-5.12-5.056c2.005-2.133 4.053-3.733 6.144-4.8 2.09-1.11 4.586-1.664 7.487-1.664 2.006 0 3.82.32 5.44.96 1.665.597 3.094 1.472 4.288 2.624 1.195 1.11 2.112 2.453 2.752 4.032.64 1.579.96 3.35.96 5.312 0 1.707-.362 3.456-1.088 5.248-.725 1.75-1.706 3.52-2.944 5.312a54.985 54.985 0 01-4.16 5.312 135.286 135.286 0 01-4.8 5.184 61.836 61.836 0 013.393-.32 34.55 34.55 0 013.392-.192h8.192V55H45.055zm48.34.768c-2.176 0-4.16-.448-5.952-1.344-1.792-.939-3.328-2.304-4.608-4.096-1.237-1.792-2.219-4.01-2.944-6.656-.683-2.645-1.024-5.696-1.024-9.152 0-3.456.341-6.485 1.024-9.088.725-2.603 1.707-4.779 2.944-6.528 1.28-1.792 2.816-3.115 4.608-3.968 1.792-.896 3.776-1.344 5.952-1.344s4.16.448 5.952 1.344c1.792.853 3.307 2.176 4.544 3.968 1.28 1.75 2.261 3.925 2.944 6.528.725 2.603 1.088 5.632 1.088 9.088 0 3.456-.363 6.507-1.088 9.152-.683 2.645-1.664 4.864-2.944 6.656-1.237 1.792-2.752 3.157-4.544 4.096-1.792.896-3.776 1.344-5.952 1.344zm0-7.296c.81 0 1.557-.192 2.24-.576.683-.427 1.28-1.173 1.792-2.24.512-1.067.896-2.496 1.152-4.288.299-1.792.448-4.075.448-6.848 0-2.773-.15-5.035-.448-6.784-.256-1.792-.64-3.179-1.152-4.16-.512-1.024-1.11-1.728-1.792-2.112a4.492 4.492 0 00-2.24-.576 4.37 4.37 0 00-2.176.576c-.683.384-1.28 1.088-1.792 2.112-.512.981-.917 2.368-1.216 4.16-.299 1.75-.448 4.01-.448 6.784 0 2.773.15 5.056.448 6.848.299 1.792.704 3.221 1.216 4.288.512 1.067 1.11 1.813 1.792 2.24a4.37 4.37 0 002.176.576zm33.812 7.296c-2.176 0-4.16-.448-5.952-1.344-1.792-.939-3.328-2.304-4.608-4.096-1.237-1.792-2.218-4.01-2.944-6.656-.682-2.645-1.024-5.696-1.024-9.152 0-3.456.342-6.485 1.024-9.088.726-2.603 1.707-4.779 2.944-6.528 1.28-1.792 2.816-3.115 4.608-3.968 1.792-.896 3.776-1.344 5.952-1.344s4.16.448 5.952 1.344c1.792.853 3.307 2.176 4.544 3.968 1.28 1.75 2.262 3.925 2.944 6.528.726 2.603 1.088 5.632 1.088 9.088 0 3.456-.362 6.507-1.088 9.152-.682 2.645-1.664 4.864-2.944 6.656-1.237 1.792-2.752 3.157-4.544 4.096-1.792.896-3.776 1.344-5.952 1.344zm0-7.296c.811 0 1.558-.192 2.24-.576.683-.427 1.28-1.173 1.792-2.24.512-1.067.896-2.496 1.152-4.288.299-1.792.448-4.075.448-6.848 0-2.773-.149-5.035-.448-6.784-.256-1.792-.64-3.179-1.152-4.16-.512-1.024-1.109-1.728-1.792-2.112a4.489 4.489 0 00-2.24-.576c-.768 0-1.493.192-2.176.576-.682.384-1.28 1.088-1.792 2.112-.512.981-.917 2.368-1.216 4.16-.298 1.75-.448 4.01-.448 6.784 0 2.773.15 5.056.448 6.848.299 1.792.704 3.221 1.216 4.288.512 1.067 1.11 1.813 1.792 2.24a4.371 4.371 0 002.176.576zM148.605 55v-7.616h8.832V23.896h-7.616v-5.824c2.219-.427 4.096-.939 5.632-1.536a30.96 30.96 0 004.48-2.176h6.912v33.024h7.616V55h-25.856zm46.305 0V23.256h21.824v7.36h-12.416V55h-9.408zm39.069.768c-2.005 0-3.946-.363-5.824-1.088a15.568 15.568 0 01-4.992-3.264c-1.408-1.408-2.538-3.136-3.392-5.184-.853-2.09-1.28-4.459-1.28-7.104 0-2.645.427-4.992 1.28-7.04.854-2.09 1.984-3.84 3.392-5.248a14.718 14.718 0 014.992-3.2 15.246 15.246 0 015.824-1.152c2.006 0 3.926.384 5.76 1.152a14.047 14.047 0 014.928 3.2c1.451 1.408 2.603 3.157 3.456 5.248.854 2.048 1.28 4.395 1.28 7.04 0 2.645-.426 5.013-1.28 7.104-.853 2.048-2.005 3.776-3.456 5.184a14.833 14.833 0 01-4.928 3.264 15.52 15.52 0 01-5.76 1.088zm0-7.616c1.92 0 3.371-.81 4.352-2.432.982-1.621 1.472-3.819 1.472-6.592 0-2.773-.49-4.97-1.472-6.592-.981-1.621-2.432-2.432-4.352-2.432-1.962 0-3.434.81-4.416 2.432-.938 1.621-1.408 3.819-1.408 6.592 0 2.773.47 4.97 1.408 6.592.982 1.621 2.454 2.432 4.416 2.432zM261.415 55v11.008h-8.128l-.896-12.224V47.64h1.984a4.185 4.185 0 001.088-.896c.342-.427.662-1.067.96-1.92.299-.896.576-2.048.832-3.456.299-1.408.576-3.243.832-5.504l1.472-12.608h23.68V47.64h5.056v6.144l-.896 12.224h-8.064V55h-17.92zm4.8-17.024c-.213 2.09-.554 3.925-1.024 5.504-.469 1.579-1.002 2.965-1.6 4.16h10.24V30.616h-6.784l-.832 7.36zm35.507 17.792c-1.45 0-2.773-.256-3.968-.768a8.346 8.346 0 01-2.944-1.984c-.81-.896-1.45-1.92-1.92-3.072-.426-1.152-.64-2.41-.64-3.776 0-3.328 1.408-5.93 4.224-7.808 2.816-1.877 7.36-3.136 13.632-3.776-.085-1.408-.512-2.517-1.28-3.328-.725-.853-1.962-1.28-3.712-1.28-1.365 0-2.73.256-4.096.768-1.322.512-2.752 1.216-4.288 2.112l-3.392-6.208a33.63 33.63 0 016.4-3.008c2.262-.768 4.651-1.152 7.168-1.152 4.096 0 7.211 1.173 9.344 3.52 2.176 2.304 3.264 5.91 3.264 10.816V55h-7.68l-.64-3.264h-.256a21.301 21.301 0 01-4.288 2.944c-1.493.725-3.136 1.088-4.928 1.088zm3.2-7.296c1.067 0 1.984-.235 2.752-.704.768-.47 1.579-1.13 2.432-1.984v-5.568c-3.328.47-5.632 1.152-6.912 2.048-1.28.896-1.92 1.963-1.92 3.2 0 1.024.32 1.792.96 2.304.683.47 1.579.704 2.688.704z" stroke="#45874E" stroke-width="2" mask="url(#a)"/></g></svg>