<svg width="336" height="64" fill="none" xmlns="http://www.w3.org/2000/svg"><path opacity=".4" d="M31.323 36.832l.03-.528h-8.954l-.064.425c-.234 1.537-.85 2.697-1.712 3.472-.86.773-1.999 1.194-3.342 1.194-1.821 0-3.3-.756-4.341-2.186-1.053-1.447-1.682-3.623-1.682-6.482 0-2.816.633-4.967 1.688-6.4 1.043-1.417 2.523-2.168 4.335-2.168 1.435 0 2.58.47 3.422 1.268.846.8 1.416 1.964 1.632 3.397l.064.426h8.951l-.027-.525c-.186-3.657-1.668-6.712-4.159-8.849-2.486-2.132-5.94-3.32-10.022-3.32-4.755 0-8.642 1.652-11.338 4.542-2.693 2.887-4.157 6.964-4.157 11.749 0 4.743 1.439 8.81 4.124 11.698 2.69 2.891 6.587 4.552 11.41 4.552 4.165 0 7.601-1.224 10.053-3.39 2.455-2.168 3.883-5.246 4.089-8.875zM48.629 48v.5h30.034v-8.04H62.001l5.35-5.242c8.37-7.636 10.775-11.584 10.775-16.451 0-3.676-1.506-6.83-4.153-9.056-2.64-2.22-6.386-3.495-10.844-3.495-4.373 0-8.105 1.308-10.747 3.683-2.648 2.38-4.161 5.796-4.15 9.923v.499h9.175l-.002-.503c-.01-1.84.566-3.275 1.534-4.248.97-.973 2.38-1.533 4.13-1.533 1.688 0 3.123.524 4.13 1.432 1.002.903 1.615 2.217 1.615 3.875 0 2.996-1.807 5.08-5.531 8.665l-14.494 13.42-.16.148V48zm51.741 1.395h.001c5.261 0 9.519-2.01 12.451-5.768 2.919-3.743 4.485-9.17 4.495-15.95.01-6.733-1.567-12.097-4.498-15.788-2.943-3.706-7.21-5.673-12.448-5.673-5.247 0-9.504 1.961-12.44 5.666-2.924 3.688-4.496 9.051-4.506 15.793-.02 6.762 1.541 12.184 4.466 15.93 2.937 3.76 7.209 5.78 12.479 5.79zm7.157-21.719v.001c.01 4.652-.736 8.072-2.01 10.312-1.258 2.212-3.023 3.267-5.146 3.267-2.133 0-3.903-1.056-5.163-3.268-1.276-2.239-2.023-5.66-2.013-10.31.01-4.583.76-7.958 2.034-10.17 1.258-2.186 3.017-3.232 5.142-3.232 2.114 0 3.874 1.046 5.133 3.232 1.273 2.212 2.023 5.587 2.023 10.168zm31.398 21.719h.001c5.261 0 9.518-2.01 12.45-5.768 2.92-3.743 4.486-9.17 4.496-15.95.01-6.733-1.567-12.097-4.498-15.788-2.944-3.706-7.211-5.673-12.448-5.673-5.247 0-9.505 1.961-12.441 5.666-2.923 3.688-4.495 9.051-4.505 15.793-.02 6.762 1.541 12.184 4.466 15.93 2.937 3.76 7.209 5.78 12.479 5.79zm7.157-21.719v.001c.01 4.652-.736 8.072-2.01 10.312-1.259 2.212-3.023 3.267-5.146 3.267-2.134 0-3.903-1.056-5.164-3.268-1.276-2.239-2.022-5.66-2.012-10.31.01-4.583.76-7.958 2.034-10.17 1.257-2.186 3.017-3.232 5.142-3.232 2.114 0 3.874 1.046 5.132 3.232 1.273 2.212 2.024 5.587 2.024 10.168zm33.649-20.403v-.5h-8.739l-.123.077-10.082 6.384-.233.147v8.815l.766-.48 8.8-5.516v32.3h9.611V7.273zm43.64 10.181v-.5h-21.92V48.5h9.233V24.616h12.687v-7.162zM258.4 56.95v.5h9.273V48.5h17.673v8.949h9.074v-16.67h-4.733V16.953h-24.388l-.036.46-.796 9.984.499.04-.499-.04c-.239 3.009-.5 6.013-1.029 8.473-.264 1.23-.591 2.301-1.004 3.16-.385.8-.83 1.385-1.339 1.747H258.4v16.17zm57.835-11.813V48.5h9.034V27.398c0-3.804-1.622-6.541-4.146-8.31-2.501-1.753-5.855-2.531-9.32-2.531-3.737 0-6.875.894-9.241 2.535-2.372 1.646-3.94 4.024-4.552 6.93l-.117.555.566.046 7.835.637.409.033.112-.395c.507-1.781 2.094-3.157 4.948-3.157 1.364 0 2.365.344 3.019.916.645.564 1.015 1.404 1.015 2.542v.12c0 .395-.101.652-.28.851-.194.215-.524.413-1.078.588-1.123.355-2.908.546-5.587.807-3.048.28-6.018.937-8.237 2.437-2.255 1.526-3.69 3.896-3.69 7.467 0 3.151 1.131 5.576 3.064 7.203 1.922 1.618 4.583 2.405 7.578 2.405 4.066 0 6.942-1.551 8.668-3.94zm-75.491 3.96c4.752 0 8.649-1.63 11.356-4.504 2.704-2.872 4.178-6.94 4.178-11.745 0-4.834-1.474-8.913-4.178-11.788-2.707-2.878-6.604-4.502-11.356-4.502s-8.649 1.624-11.356 4.502c-2.704 2.875-4.178 6.954-4.178 11.788 0 4.804 1.474 8.873 4.178 11.745 2.707 2.875 6.604 4.505 11.356 4.505zm.04-7.562c-1.959 0-3.422-.885-4.417-2.4-1.01-1.536-1.546-3.74-1.546-6.347s.536-4.816 1.546-6.358c.996-1.52 2.46-2.41 4.417-2.41 1.914 0 3.358.887 4.346 2.408 1.001 1.543 1.537 3.754 1.537 6.36 0 2.606-.536 4.812-1.537 6.35-.987 1.515-2.431 2.397-4.346 2.397zm32.632-17.057h7.277v16.301h-10.149c1.558-2.97 2.178-7.337 2.596-13.3l.001-.006.275-2.995zm36.577 17.753c-1.233 0-2.234-.288-2.914-.797-.662-.496-1.06-1.23-1.06-2.243 0-1.03.413-1.773 1.156-2.325.768-.572 1.91-.953 3.365-1.157.924-.129 2.156-.305 3.287-.534a17.17 17.17 0 001.59-.392c.151-.047.299-.096.44-.149v2.45c0 2.876-2.369 5.147-5.864 5.147z" stroke="#45874E"/></svg>