<svg width="248" height="72" viewBox="0 0 248 72" fill="none" xmlns="http://www.w3.org/2000/svg">
<g opacity="0.4">
<mask id="path-1-outside-1" maskUnits="userSpaceOnUse" x="-0.528076" y="13.3601" width="245" height="44" fill="black">
<rect fill="white" x="-0.528076" y="13.3601" width="245" height="44"/>
<path d="M15.8079 55.7681C12.4799 55.7681 9.66392 55.2348 7.35992 54.1681C5.05592 53.0588 3.09326 51.6934 1.47192 50.0721L5.69592 44.1201C6.93326 45.2294 8.25592 46.1894 9.66392 47.0001C11.1146 47.7681 12.7146 48.1521 14.4639 48.1521C16.5546 48.1521 18.2186 47.6188 19.4559 46.5521C20.6933 45.4854 21.3119 43.9068 21.3119 41.8161C21.3119 39.7681 20.7146 38.2108 19.5199 37.1441C18.3679 36.0774 16.8319 35.5441 14.9119 35.5441C14.3146 35.5441 13.7813 35.5868 13.3119 35.6721C12.8426 35.7148 12.3733 35.8214 11.9039 35.9921C11.4773 36.1628 11.0079 36.3761 10.4959 36.6321C10.0266 36.8881 9.49326 37.2081 8.89592 37.5921L4.67192 34.9041L5.82392 14.3601H28.8639V22.2961H13.9519L13.2479 29.9121C14.0159 29.5708 14.7413 29.3361 15.4239 29.2081C16.1493 29.0374 16.9386 28.9521 17.7919 28.9521C19.5413 28.9521 21.1839 29.2081 22.7199 29.7201C24.2986 30.2321 25.6853 31.0001 26.8799 32.0241C28.0746 33.0481 29.0133 34.3494 29.6959 35.9281C30.3786 37.5068 30.7199 39.3841 30.7199 41.5601C30.7199 43.8214 30.3146 45.8268 29.5039 47.5761C28.6933 49.3254 27.6053 50.8188 26.2399 52.0561C24.8746 53.2508 23.2746 54.1681 21.4399 54.8081C19.6479 55.4481 17.7706 55.7681 15.8079 55.7681ZM58.5929 55.7681C56.7156 55.7681 54.8383 55.4908 52.9609 54.9361C51.0836 54.3388 49.4196 53.3574 47.9689 51.9921L51.4249 46.4881C52.1929 47.0854 53.1103 47.5974 54.1769 48.0241C55.2863 48.4081 56.3956 48.6001 57.5049 48.6001C59.5956 48.6001 61.3023 48.0881 62.6249 47.0641C63.9903 46.0401 64.8649 44.3121 65.2489 41.8801H54.2409V35.6721H65.1209C64.6943 33.4961 63.8623 31.9601 62.6249 31.0641C61.3876 30.1254 59.8089 29.6561 57.8889 29.6561C56.8223 29.6561 55.8409 29.8268 54.9449 30.1681C54.0916 30.4668 53.2596 30.9148 52.4489 31.5121L48.4169 26.1361C49.5263 25.0268 50.9556 24.1521 52.7049 23.5121C54.4969 22.8294 56.4169 22.4881 58.4649 22.4881C60.6836 22.4881 62.7529 22.8294 64.6729 23.5121C66.5929 24.1948 68.2569 25.2401 69.6649 26.6481C71.1156 28.0134 72.2463 29.7414 73.0569 31.8321C73.8676 33.8801 74.2729 36.3121 74.2729 39.1281C74.2729 41.9014 73.8676 44.3334 73.0569 46.4241C72.2889 48.4721 71.2009 50.2001 69.7929 51.6081C68.3849 52.9734 66.7209 54.0188 64.8009 54.7441C62.8809 55.4268 60.8116 55.7681 58.5929 55.7681ZM85.8204 55.0001V30.6161H76.4764V23.2561H104.636V30.6161H95.2284V55.0001H85.8204ZM117.222 55.7681C115.772 55.7681 114.449 55.5121 113.254 55.0001C112.102 54.5308 111.121 53.8694 110.31 53.0161C109.5 52.1201 108.86 51.0961 108.39 49.9441C107.964 48.7921 107.75 47.5334 107.75 46.1681C107.75 42.8401 109.158 40.2374 111.974 38.3601C114.79 36.4828 119.334 35.2241 125.606 34.5841C125.521 33.1761 125.094 32.0668 124.326 31.2561C123.601 30.4028 122.364 29.9761 120.614 29.9761C119.249 29.9761 117.884 30.2321 116.518 30.7441C115.196 31.2561 113.766 31.9601 112.23 32.8561L108.838 26.6481C110.886 25.4108 113.02 24.4081 115.238 23.6401C117.5 22.8721 119.889 22.4881 122.406 22.4881C126.502 22.4881 129.617 23.6614 131.75 26.0081C133.926 28.3121 135.014 31.9174 135.014 36.8241V55.0001H127.334L126.694 51.7361H126.438C125.073 52.9308 123.644 53.9121 122.15 54.6801C120.657 55.4054 119.014 55.7681 117.222 55.7681ZM120.422 48.4721C121.489 48.4721 122.406 48.2374 123.174 47.7681C123.942 47.2988 124.753 46.6374 125.606 45.7841V40.2161C122.278 40.6854 119.974 41.3681 118.694 42.2641C117.414 43.1601 116.774 44.2268 116.774 45.4641C116.774 46.4881 117.094 47.2561 117.734 47.7681C118.417 48.2374 119.313 48.4721 120.422 48.4721ZM142.972 55.0001V23.2561H171.388V55.0001H161.98V30.6161H152.38V55.0001H142.972ZM193.354 55.7681C191.349 55.7681 189.408 55.4054 187.53 54.6801C185.653 53.9121 183.989 52.8241 182.538 51.4161C181.13 50.0081 180 48.2801 179.146 46.2321C178.293 44.1414 177.866 41.7734 177.866 39.1281C177.866 36.4828 178.293 34.1361 179.146 32.0881C180 29.9974 181.13 28.2481 182.538 26.8401C183.989 25.4321 185.653 24.3654 187.53 23.6401C189.408 22.8721 191.349 22.4881 193.354 22.4881C195.36 22.4881 197.28 22.8721 199.114 23.6401C200.992 24.3654 202.634 25.4321 204.042 26.8401C205.493 28.2481 206.645 29.9974 207.498 32.0881C208.352 34.1361 208.778 36.4828 208.778 39.1281C208.778 41.7734 208.352 44.1414 207.498 46.2321C206.645 48.2801 205.493 50.0081 204.042 51.4161C202.634 52.8241 200.992 53.9121 199.114 54.6801C197.28 55.4054 195.36 55.7681 193.354 55.7681ZM193.354 48.1521C195.274 48.1521 196.725 47.3414 197.706 45.7201C198.688 44.0988 199.178 41.9014 199.178 39.1281C199.178 36.3548 198.688 34.1574 197.706 32.5361C196.725 30.9148 195.274 30.1041 193.354 30.1041C191.392 30.1041 189.92 30.9148 188.938 32.5361C188 34.1574 187.53 36.3548 187.53 39.1281C187.53 41.9014 188 44.0988 188.938 45.7201C189.92 47.3414 191.392 48.1521 193.354 48.1521ZM215.222 55.0001V23.2561H228.726C230.518 23.2561 232.182 23.4054 233.718 23.7041C235.254 23.9601 236.598 24.4294 237.75 25.1121C238.902 25.7521 239.798 26.6054 240.438 27.6721C241.121 28.7388 241.462 30.0614 241.462 31.6401C241.462 33.0054 241.057 34.3068 240.246 35.5441C239.436 36.7814 238.07 37.6561 236.15 38.1681V38.4241C238.156 38.8934 239.734 39.7041 240.886 40.8561C242.081 42.0081 242.678 43.6721 242.678 45.8481C242.678 47.4694 242.316 48.8774 241.59 50.0721C240.908 51.2241 239.969 52.1628 238.774 52.8881C237.58 53.6134 236.172 54.1468 234.55 54.4881C232.972 54.8294 231.286 55.0001 229.494 55.0001H215.222ZM224.374 35.6721H228.086C229.665 35.6721 230.796 35.4161 231.478 34.9041C232.161 34.3494 232.502 33.5814 232.502 32.6001C232.502 31.6188 232.161 30.8508 231.478 30.2961C230.838 29.7414 229.729 29.4641 228.15 29.4641H224.374V35.6721ZM224.374 48.7921H228.918C230.625 48.7921 231.82 48.4721 232.502 47.8321C233.228 47.1494 233.59 46.2748 233.59 45.2081C233.59 44.2694 233.206 43.4801 232.438 42.8401C231.713 42.2001 230.518 41.8801 228.854 41.8801H224.374V48.7921Z"/>
</mask>
<path d="M15.8079 55.7681C12.4799 55.7681 9.66392 55.2348 7.35992 54.1681C5.05592 53.0588 3.09326 51.6934 1.47192 50.0721L5.69592 44.1201C6.93326 45.2294 8.25592 46.1894 9.66392 47.0001C11.1146 47.7681 12.7146 48.1521 14.4639 48.1521C16.5546 48.1521 18.2186 47.6188 19.4559 46.5521C20.6933 45.4854 21.3119 43.9068 21.3119 41.8161C21.3119 39.7681 20.7146 38.2108 19.5199 37.1441C18.3679 36.0774 16.8319 35.5441 14.9119 35.5441C14.3146 35.5441 13.7813 35.5868 13.3119 35.6721C12.8426 35.7148 12.3733 35.8214 11.9039 35.9921C11.4773 36.1628 11.0079 36.3761 10.4959 36.6321C10.0266 36.8881 9.49326 37.2081 8.89592 37.5921L4.67192 34.9041L5.82392 14.3601H28.8639V22.2961H13.9519L13.2479 29.9121C14.0159 29.5708 14.7413 29.3361 15.4239 29.2081C16.1493 29.0374 16.9386 28.9521 17.7919 28.9521C19.5413 28.9521 21.1839 29.2081 22.7199 29.7201C24.2986 30.2321 25.6853 31.0001 26.8799 32.0241C28.0746 33.0481 29.0133 34.3494 29.6959 35.9281C30.3786 37.5068 30.7199 39.3841 30.7199 41.5601C30.7199 43.8214 30.3146 45.8268 29.5039 47.5761C28.6933 49.3254 27.6053 50.8188 26.2399 52.0561C24.8746 53.2508 23.2746 54.1681 21.4399 54.8081C19.6479 55.4481 17.7706 55.7681 15.8079 55.7681ZM58.5929 55.7681C56.7156 55.7681 54.8383 55.4908 52.9609 54.9361C51.0836 54.3388 49.4196 53.3574 47.9689 51.9921L51.4249 46.4881C52.1929 47.0854 53.1103 47.5974 54.1769 48.0241C55.2863 48.4081 56.3956 48.6001 57.5049 48.6001C59.5956 48.6001 61.3023 48.0881 62.6249 47.0641C63.9903 46.0401 64.8649 44.3121 65.2489 41.8801H54.2409V35.6721H65.1209C64.6943 33.4961 63.8623 31.9601 62.6249 31.0641C61.3876 30.1254 59.8089 29.6561 57.8889 29.6561C56.8223 29.6561 55.8409 29.8268 54.9449 30.1681C54.0916 30.4668 53.2596 30.9148 52.4489 31.5121L48.4169 26.1361C49.5263 25.0268 50.9556 24.1521 52.7049 23.5121C54.4969 22.8294 56.4169 22.4881 58.4649 22.4881C60.6836 22.4881 62.7529 22.8294 64.6729 23.5121C66.5929 24.1948 68.2569 25.2401 69.6649 26.6481C71.1156 28.0134 72.2463 29.7414 73.0569 31.8321C73.8676 33.8801 74.2729 36.3121 74.2729 39.1281C74.2729 41.9014 73.8676 44.3334 73.0569 46.4241C72.2889 48.4721 71.2009 50.2001 69.7929 51.6081C68.3849 52.9734 66.7209 54.0188 64.8009 54.7441C62.8809 55.4268 60.8116 55.7681 58.5929 55.7681ZM85.8204 55.0001V30.6161H76.4764V23.2561H104.636V30.6161H95.2284V55.0001H85.8204ZM117.222 55.7681C115.772 55.7681 114.449 55.5121 113.254 55.0001C112.102 54.5308 111.121 53.8694 110.31 53.0161C109.5 52.1201 108.86 51.0961 108.39 49.9441C107.964 48.7921 107.75 47.5334 107.75 46.1681C107.75 42.8401 109.158 40.2374 111.974 38.3601C114.79 36.4828 119.334 35.2241 125.606 34.5841C125.521 33.1761 125.094 32.0668 124.326 31.2561C123.601 30.4028 122.364 29.9761 120.614 29.9761C119.249 29.9761 117.884 30.2321 116.518 30.7441C115.196 31.2561 113.766 31.9601 112.23 32.8561L108.838 26.6481C110.886 25.4108 113.02 24.4081 115.238 23.6401C117.5 22.8721 119.889 22.4881 122.406 22.4881C126.502 22.4881 129.617 23.6614 131.75 26.0081C133.926 28.3121 135.014 31.9174 135.014 36.8241V55.0001H127.334L126.694 51.7361H126.438C125.073 52.9308 123.644 53.9121 122.15 54.6801C120.657 55.4054 119.014 55.7681 117.222 55.7681ZM120.422 48.4721C121.489 48.4721 122.406 48.2374 123.174 47.7681C123.942 47.2988 124.753 46.6374 125.606 45.7841V40.2161C122.278 40.6854 119.974 41.3681 118.694 42.2641C117.414 43.1601 116.774 44.2268 116.774 45.4641C116.774 46.4881 117.094 47.2561 117.734 47.7681C118.417 48.2374 119.313 48.4721 120.422 48.4721ZM142.972 55.0001V23.2561H171.388V55.0001H161.98V30.6161H152.38V55.0001H142.972ZM193.354 55.7681C191.349 55.7681 189.408 55.4054 187.53 54.6801C185.653 53.9121 183.989 52.8241 182.538 51.4161C181.13 50.0081 180 48.2801 179.146 46.2321C178.293 44.1414 177.866 41.7734 177.866 39.1281C177.866 36.4828 178.293 34.1361 179.146 32.0881C180 29.9974 181.13 28.2481 182.538 26.8401C183.989 25.4321 185.653 24.3654 187.53 23.6401C189.408 22.8721 191.349 22.4881 193.354 22.4881C195.36 22.4881 197.28 22.8721 199.114 23.6401C200.992 24.3654 202.634 25.4321 204.042 26.8401C205.493 28.2481 206.645 29.9974 207.498 32.0881C208.352 34.1361 208.778 36.4828 208.778 39.1281C208.778 41.7734 208.352 44.1414 207.498 46.2321C206.645 48.2801 205.493 50.0081 204.042 51.4161C202.634 52.8241 200.992 53.9121 199.114 54.6801C197.28 55.4054 195.36 55.7681 193.354 55.7681ZM193.354 48.1521C195.274 48.1521 196.725 47.3414 197.706 45.7201C198.688 44.0988 199.178 41.9014 199.178 39.1281C199.178 36.3548 198.688 34.1574 197.706 32.5361C196.725 30.9148 195.274 30.1041 193.354 30.1041C191.392 30.1041 189.92 30.9148 188.938 32.5361C188 34.1574 187.53 36.3548 187.53 39.1281C187.53 41.9014 188 44.0988 188.938 45.7201C189.92 47.3414 191.392 48.1521 193.354 48.1521ZM215.222 55.0001V23.2561H228.726C230.518 23.2561 232.182 23.4054 233.718 23.7041C235.254 23.9601 236.598 24.4294 237.75 25.1121C238.902 25.7521 239.798 26.6054 240.438 27.6721C241.121 28.7388 241.462 30.0614 241.462 31.6401C241.462 33.0054 241.057 34.3068 240.246 35.5441C239.436 36.7814 238.07 37.6561 236.15 38.1681V38.4241C238.156 38.8934 239.734 39.7041 240.886 40.8561C242.081 42.0081 242.678 43.6721 242.678 45.8481C242.678 47.4694 242.316 48.8774 241.59 50.0721C240.908 51.2241 239.969 52.1628 238.774 52.8881C237.58 53.6134 236.172 54.1468 234.55 54.4881C232.972 54.8294 231.286 55.0001 229.494 55.0001H215.222ZM224.374 35.6721H228.086C229.665 35.6721 230.796 35.4161 231.478 34.9041C232.161 34.3494 232.502 33.5814 232.502 32.6001C232.502 31.6188 232.161 30.8508 231.478 30.2961C230.838 29.7414 229.729 29.4641 228.15 29.4641H224.374V35.6721ZM224.374 48.7921H228.918C230.625 48.7921 231.82 48.4721 232.502 47.8321C233.228 47.1494 233.59 46.2748 233.59 45.2081C233.59 44.2694 233.206 43.4801 232.438 42.8401C231.713 42.2001 230.518 41.8801 228.854 41.8801H224.374V48.7921Z" stroke="#45874E" stroke-width="2" mask="url(#path-1-outside-1)"/>
</g>
</svg>
