<svg width="248" height="57" viewBox="0 0 248 57" fill="none" xmlns="http://www.w3.org/2000/svg">
<path opacity="0.4" d="M32.5328 44.9412C35.3116 42.3356 36.8992 38.6661 36.8893 34.4196C36.9093 26.3673 31.2553 20.5161 23.6222 20.5161C20.4726 20.5161 17.6438 21.6319 15.9176 23.3054L16.7948 14.8144H34.1421H34.6421V14.3144V7.27466V6.77466H34.1421H9.24441H8.7873L8.74641 7.22993L6.81743 28.7072L6.77647 29.1633L7.22722 29.2441L14.8835 30.6163L15.1887 30.671L15.3734 30.4218C16.5119 28.8857 18.7717 27.8801 21.0557 27.8798C22.9798 27.8894 24.6081 28.5878 25.7553 29.7625C26.9031 30.9378 27.5967 32.6179 27.5967 34.6383C27.5967 36.6405 26.917 38.3006 25.7918 39.4577C24.6674 40.614 23.07 41.2974 21.1762 41.2974C17.9533 41.2974 15.4701 39.2933 15.2917 36.4563L15.2622 35.9877H14.7927H6.44043H5.929L5.94056 36.499C6.10755 43.8886 12.5581 49.0588 21.1762 49.0588C25.8198 49.0588 29.7558 47.5451 32.5328 44.9412ZM70.5872 26.0179C71.3543 26.9708 71.8321 28.2625 72.0784 29.7235H64.444H63.944V30.2235V35.2349V35.7349H64.444H72.0746C71.8288 37.1332 71.3598 38.4246 70.5981 39.3958C69.7519 40.4749 68.5237 41.188 66.7313 41.1979C64.0082 41.1787 62.319 39.1206 62.319 36.5275V36.0275H61.819H54.2025H53.7025V36.5275C53.7025 40.376 55.0297 43.522 57.35 45.7039C59.6667 47.8823 62.9295 49.0588 66.7309 49.0588C71.4951 49.0588 75.179 47.3257 77.6647 44.4352C80.1419 41.5546 81.39 37.5712 81.39 33.1269V32.3911C81.39 27.9751 80.1311 23.9924 77.6499 21.1054C75.1603 18.2086 71.4771 16.4593 66.7309 16.4593C59.4567 16.4593 53.7025 21.239 53.7025 28.1951V28.6951H54.2025H61.819H62.319V28.1951C62.319 26.9982 62.7703 26.0385 63.5251 25.3703C64.2852 24.6972 65.3882 24.2902 66.7313 24.2803C68.5128 24.2903 69.7402 24.9659 70.5872 26.0179ZM82.9852 24.1184V24.6184H83.4852H92.7494V48.0019V48.5019H93.2494H101.323H101.823V48.0019V24.6184H111.167H111.667V24.1184V17.4565V16.9565H111.167H83.4852H82.9852V17.4565V24.1184ZM132.587 45.1381V48.0019V48.5019H133.087H141.121H141.621V48.0019V27.3997C141.621 23.5964 139.999 20.8587 137.475 19.0903C134.973 17.3375 131.62 16.5588 128.155 16.5588C124.418 16.5588 121.28 17.4524 118.914 19.094C116.542 20.7395 114.974 23.118 114.362 26.0238L114.245 26.5793L114.81 26.6253L122.646 27.2617L123.055 27.2949L123.167 26.9C123.674 25.1189 125.261 23.7434 128.115 23.7434C129.479 23.7434 130.48 24.0867 131.134 24.6588C131.779 25.2226 132.149 26.0633 132.149 27.2008V27.3201C132.149 27.7156 132.048 27.9729 131.869 28.172C131.675 28.3866 131.345 28.5845 130.791 28.76C129.668 29.1155 127.883 29.3058 125.204 29.5667C122.156 29.8475 119.186 30.5036 116.967 32.0043C114.712 33.5299 113.277 35.9 113.277 39.4707C113.277 42.6224 114.408 45.0466 116.341 46.6742C118.263 48.2918 120.924 49.0786 123.919 49.0786C127.985 49.0786 130.861 47.5278 132.587 45.1381ZM147.193 48.0019V48.5019H147.693H155.688H156.188V48.0019V24.6184H165.807V48.0019V48.5019H166.307H174.401H174.901V48.0019V17.4565V16.9565H174.401H147.693H147.193V17.4565V48.0019ZM215.006 48.0019V48.5019H215.506H230.54C234.416 48.5019 237.505 47.7111 239.639 46.1974C241.795 44.668 242.932 42.43 242.932 39.6695C242.932 37.5205 242.077 35.5864 240.491 34.1441C239.389 33.1416 237.946 32.3875 236.214 31.9532C237.409 31.5236 238.426 30.9418 239.228 30.2165C240.527 29.041 241.242 27.5058 241.242 25.7093C241.242 22.8924 239.986 20.6748 237.739 19.1828C235.517 17.7064 232.355 16.9565 228.531 16.9565H215.506H215.006V17.4565V48.0019ZM126.345 42.232C125.112 42.232 124.111 41.9439 123.431 41.4345C122.769 40.9386 122.371 40.2045 122.371 39.1923C122.371 38.1624 122.784 37.4192 123.527 36.8665C124.295 36.2947 125.437 35.9138 126.892 35.7102C127.816 35.5811 129.048 35.4052 130.178 35.1755C130.744 35.0607 131.292 34.9308 131.769 34.784C131.92 34.7374 132.067 34.688 132.209 34.6354V37.0843C132.209 39.9609 129.84 42.232 126.345 42.232ZM194.963 49.0985C199.716 49.0985 203.613 47.4687 206.319 44.5936C209.023 41.722 210.497 37.6534 210.497 32.8485C210.497 28.0146 209.023 23.9358 206.32 21.0613C203.612 18.1834 199.715 16.5588 194.963 16.5588C190.211 16.5588 186.314 18.1834 183.607 21.0613C180.903 23.9358 179.429 28.0146 179.429 32.8485C179.429 37.6534 180.903 41.722 183.607 44.5936C186.314 47.4687 190.211 49.0985 194.963 49.0985ZM195.003 41.536C193.045 41.536 191.581 40.6509 190.586 39.1364C189.576 37.5999 189.04 35.3953 189.04 32.7889C189.04 30.1825 189.576 27.9725 190.586 26.4308C191.582 24.911 193.046 24.0218 195.003 24.0218C196.917 24.0218 198.361 24.9077 199.349 26.429C200.35 27.9716 200.886 30.1826 200.886 32.7889C200.886 35.3951 200.35 37.6008 199.349 39.1382C198.362 40.6542 196.918 41.536 195.003 41.536ZM223.901 41.1582V35.4963H230.54C231.621 35.4963 232.432 35.8021 232.969 36.3C233.501 36.7937 233.818 37.5267 233.818 38.4963C233.818 39.3499 233.513 39.9931 232.988 40.4319C232.452 40.8799 231.634 41.1582 230.54 41.1582H223.901ZM223.901 29.5247V24.4394H228.531C229.781 24.4394 230.726 24.7104 231.345 25.148C231.945 25.5723 232.267 26.1715 232.267 26.9423C232.267 27.759 231.951 28.3786 231.384 28.8084C230.8 29.2509 229.905 29.5247 228.71 29.5247H223.901Z" stroke="#45874E"/>
</svg>
