<svg width="40" height="40" viewBox="0 0 40 40" fill="none" xmlns="http://www.w3.org/2000/svg">
<path d="M38.0401 19.7684H34.8516V14.3989C34.8516 14.0693 34.5842 13.8018 34.2546 13.8018H24.3083V8.44662C24.3083 8.11707 24.0409 7.84961 23.7113 7.84961H1.76108C1.43153 7.84961 1.16406 8.11707 1.16406 8.44662V28.5481C1.16406 28.8777 1.43153 29.1451 1.76108 29.1451H6.8974C7.10277 30.7256 8.45481 31.9519 10.0906 31.9519C11.7241 31.9519 13.0745 30.726 13.2795 29.1451H23.7117H27.6862C27.8912 30.7256 29.2421 31.9519 30.8763 31.9519C32.5121 31.9519 33.8638 30.726 34.0691 29.1451H38.0405C38.37 29.1451 38.6375 28.8777 38.6375 28.5481V20.365C38.6371 20.0355 38.3696 19.7684 38.0401 19.7684ZM10.0902 30.7579C8.97103 30.7579 8.06078 29.8476 8.06078 28.7288C8.06078 27.6096 8.97103 26.6994 10.0902 26.6994C11.2066 26.6994 12.1149 27.6096 12.1149 28.7288C12.1149 29.8476 11.2066 30.7579 10.0902 30.7579ZM10.0902 25.5057C8.58138 25.5057 7.31491 26.5489 6.96585 27.9515H2.35809V9.04364H23.1143V14.3985V20.365V27.9511H13.2102C12.8616 26.5489 11.5967 25.5057 10.0902 25.5057ZM30.8759 30.7579C29.7587 30.7579 28.8496 29.8476 28.8496 28.7288C28.8496 27.6096 29.7587 26.6994 30.8759 26.6994C31.9947 26.6994 32.905 27.6096 32.905 28.7288C32.9046 29.8476 31.9943 30.7579 30.8759 30.7579ZM37.4431 27.9511H33.9999C33.6504 26.5489 32.3844 25.5053 30.8759 25.5053C29.3686 25.5053 28.1034 26.5485 27.7543 27.9511H24.3083V20.365V14.9955H33.6576V20.365C33.6576 20.6946 33.9251 20.962 34.2546 20.962H37.4431V27.9511Z" fill="#81C784"/>
</svg>
