<svg width="40" height="40" viewBox="0 0 40 40" fill="none" xmlns="http://www.w3.org/2000/svg">
<path d="M25.246 15.5307L18.5276 23.0563L15.1182 19.6473C14.885 19.4141 14.5073 19.4141 14.274 19.6473C14.0408 19.8806 14.0408 20.2583 14.274 20.4915L18.13 24.3474C18.2418 24.4597 18.3938 24.5222 18.5523 24.5222C18.5578 24.5222 18.5634 24.5222 18.569 24.5218C18.7333 24.517 18.8882 24.4453 18.9976 24.3228L26.1371 16.3259C26.3568 16.08 26.3353 15.7027 26.0894 15.483C25.8426 15.2637 25.4661 15.2851 25.246 15.5307Z"/>
<path d="M36.647 19.9005C36.6581 19.8551 36.6657 19.8082 36.6657 19.7592C36.6657 18.168 35.0151 17.3457 33.5584 16.6197C32.5244 16.1047 31.4557 15.5717 31.1712 14.9003C30.8814 14.2149 31.2906 13.0981 31.6854 12.0175C32.2362 10.5118 32.8054 8.95523 31.755 7.90567C30.725 6.87562 29.2189 7.22428 27.7618 7.56299C26.7421 7.79941 25.687 8.04338 24.9845 7.74647C24.2987 7.45632 23.7288 6.55682 23.1775 5.68597C22.3779 4.42468 21.4725 2.99463 19.9007 2.99463C18.3262 2.99463 17.4378 4.45572 16.6545 5.74528C16.1109 6.6404 15.5485 7.56537 14.8635 7.85513C14.1634 8.15164 13.0971 7.88299 12.0663 7.62388C10.5976 7.25533 9.07922 6.87244 8.04679 7.90607C7.0036 8.94886 7.50908 10.5134 7.99863 12.0271C8.34808 13.1069 8.70907 14.2237 8.41694 14.915C8.13196 15.5893 7.11067 16.1174 6.12241 16.6285C4.72261 17.352 3.13574 18.1723 3.13574 19.76C3.13574 19.8094 3.1437 19.8567 3.15485 19.9025C3.1437 19.9479 3.13614 19.9948 3.13614 20.0438C3.13614 21.6314 4.72301 22.4517 6.1232 23.1753C7.11067 23.686 8.13236 24.2141 8.41733 24.8884C8.70947 25.5797 8.34848 26.6965 7.99903 27.7767C7.50987 29.29 7.004 30.8541 8.04679 31.8973C9.08002 32.9309 10.5984 32.5493 12.0667 32.1795C13.0979 31.9208 14.1646 31.6529 14.8643 31.9491C15.5489 32.2384 16.1113 33.1634 16.6549 34.0581C17.4386 35.3473 18.3266 36.8084 19.9011 36.8084C21.4729 36.8084 22.3787 35.3783 23.1779 34.117C23.7296 33.2462 24.2995 32.3467 24.9841 32.0565C25.6894 31.7588 26.7425 32.0032 27.7618 32.24C29.2181 32.5779 30.725 32.9282 31.7542 31.8977C32.8058 30.8478 32.2362 29.2907 31.6854 27.7855C31.2902 26.7049 30.8814 25.5881 31.1708 24.9035C31.4557 24.2316 32.5244 23.6987 33.5584 23.1837C35.0147 22.4581 36.6657 21.6354 36.6657 20.0442C36.6661 19.9936 36.6581 19.9463 36.647 19.9005ZM33.0263 22.1134C31.7984 22.7252 30.5288 23.358 30.0715 24.437C29.599 25.5554 30.0898 26.8971 30.5642 28.1942C31.0052 29.4006 31.4223 30.5409 30.9101 31.0519C30.3493 31.6139 29.2229 31.3524 28.0317 31.0762C26.8265 30.7968 25.5803 30.5075 24.5192 30.956C23.4904 31.3914 22.8189 32.4517 22.1694 33.477C21.4733 34.5755 20.8157 35.6131 19.9011 35.6131C18.998 35.6131 18.3556 34.556 17.675 33.4368C17.0331 32.3801 16.3688 31.2872 15.3292 30.8482C14.2605 30.3952 12.9976 30.7128 11.7749 31.0205C10.5769 31.321 9.44539 31.6068 8.89097 31.0519C8.3644 30.5258 8.73853 29.3684 9.13455 28.1429C9.55126 26.8553 9.98151 25.5236 9.51664 24.4223C9.0637 23.3508 7.84738 22.722 6.67126 22.1134C5.46728 21.4913 4.32977 20.9035 4.32977 20.0426C4.32977 19.9932 4.32181 19.9459 4.31067 19.8997C4.32181 19.8543 4.32937 19.8074 4.32937 19.7584C4.32937 18.8975 5.46649 18.3097 6.67047 17.6876C7.84699 17.0794 9.0637 16.4505 9.51624 15.3783C9.98111 14.2774 9.55087 12.9461 9.13415 11.6581C8.73813 10.4326 8.3636 9.27523 8.89097 8.74866C9.4442 8.19423 10.5757 8.47921 11.7745 8.7805C12.9964 9.08737 14.2593 9.40617 15.3284 8.95324C16.368 8.51383 17.0323 7.4209 17.675 6.36418C18.3552 5.24458 18.9976 4.18746 19.9007 4.18746C20.8153 4.18746 21.4729 5.22508 22.1686 6.32398C22.8185 7.34926 23.49 8.40955 24.5192 8.84538C25.5803 9.29393 26.8265 9.00458 28.0317 8.72478C29.2229 8.44856 30.3489 8.18707 30.9105 8.74945C31.4219 9.2601 31.0048 10.4 30.5638 11.6068C30.0894 12.9043 29.5986 14.246 30.0715 15.3648C30.528 16.4434 31.798 17.0762 33.0259 17.688C34.2836 18.3144 35.4717 18.9067 35.4717 19.7584C35.4717 19.8078 35.4796 19.8551 35.4908 19.9009C35.4796 19.9463 35.4721 19.9932 35.4721 20.0422C35.4721 20.8951 34.284 21.487 33.0263 22.1134Z"/>
</svg>
