<svg width="48" height="48" viewBox="0 0 48 48" xmlns="http://www.w3.org/2000/svg">
<path d="M36.785 11.605C36.005 10.825 34.745 10.825 33.965 11.605L24.185 21.365L14.405 11.585C13.625 10.805 12.365 10.805 11.585 11.585C10.805 12.365 10.805 13.625 11.585 14.405L21.365 24.185L11.585 33.965C10.805 34.745 10.805 36.005 11.585 36.785C12.365 37.565 13.625 37.565 14.405 36.785L24.185 27.005L33.965 36.785C34.745 37.565 36.005 37.565 36.785 36.785C37.565 36.005 37.565 34.745 36.785 33.965L27.005 24.185L36.785 14.405C37.545 13.645 37.545 12.365 36.785 11.605V11.605Z"/>
</svg>
