<svg width="40" height="40" viewBox="0 0 40 40" fill="none" xmlns="http://www.w3.org/2000/svg">
<path d="M33.709 2H7.29296C4.92597 2 3 3.92596 3 6.29296V24.4732C3 26.8398 4.92558 28.7654 7.29296 28.7654H16.6783V36.0341H9.40377C9.0805 36.0341 8.81884 36.2957 8.81884 36.619C8.81884 36.9423 9.0805 37.2039 9.40377 37.2039H17.2632H23.7383H31.5978C31.9211 37.2039 32.1827 36.9423 32.1827 36.619C32.1827 36.2957 31.9211 36.0341 31.5978 36.0341H24.3233V28.7654H33.7086C36.0748 28.7654 38 26.8398 38 24.4732V6.29296C38.0004 3.92596 36.0752 2 33.709 2ZM7.29296 3.16985H33.709C35.4302 3.16985 36.8305 4.57094 36.8305 6.29296V20.0777H4.17024V6.29296C4.17024 4.57055 5.57094 3.16985 7.29296 3.16985ZM23.1538 36.0341H17.8485V28.7654H23.1538V36.0341ZM33.709 27.5956H23.7387H17.2636H7.29335C5.57133 27.5956 4.17024 26.1949 4.17024 24.4732V21.248H36.8305V24.4732C36.8305 26.1949 35.4302 27.5956 33.709 27.5956Z" fill="#81C784"/>
<path d="M20.501 22.353C19.2933 22.353 18.311 23.3349 18.311 24.5414C18.311 25.7479 19.2933 26.7298 20.501 26.7298C21.7079 26.7298 22.6894 25.7479 22.6894 24.5414C22.6894 23.3349 21.7079 22.353 20.501 22.353ZM20.501 25.56C19.9387 25.56 19.4809 25.103 19.4809 24.5414C19.4809 23.9799 19.9383 23.5229 20.501 23.5229C21.0625 23.5229 21.5195 23.9799 21.5195 24.5414C21.5195 25.103 21.0625 25.56 20.501 25.56Z" fill="#81C784"/>
</svg>
