<svg width="48" height="48" viewBox="0 0 48 48" fill="none" xmlns="http://www.w3.org/2000/svg">
<path d="M48 24C48 37.2548 37.2548 48 24 48C10.7452 48 0 37.2548 0 24C0 10.7452 10.7452 0 24 0C37.2548 0 48 10.7452 48 24Z" fill="white"/>
<g clip-path="url(#clip0)">
<path d="M36.5232 30.4976C36.4901 30.427 36.4595 30.3678 36.431 30.3207C35.9593 29.472 35.059 28.4299 33.7295 27.1947L33.701 27.1666L33.6869 27.1521L33.6729 27.1384H33.6588C33.0553 26.563 32.6733 26.1765 32.5133 25.9781C32.2211 25.6015 32.1549 25.2195 32.3153 24.833C32.429 24.5407 32.8531 23.9231 33.5886 22.9798C33.9751 22.4804 34.2814 22.0798 34.5079 21.7772C36.1392 19.6086 36.8461 18.2229 36.6294 17.6189L36.5443 17.4776C36.4877 17.3924 36.3413 17.3147 36.1057 17.244C35.8701 17.1733 35.5683 17.1621 35.2008 17.2089L31.1272 17.2378C31.033 17.2283 30.9387 17.2308 30.8441 17.2444C30.7498 17.2589 30.6886 17.2729 30.6601 17.287C30.6316 17.3015 30.6084 17.313 30.5894 17.3221L30.5328 17.3647C30.4857 17.3928 30.434 17.4424 30.3774 17.5135C30.3207 17.5842 30.2732 17.6665 30.236 17.7611C29.7928 18.9021 29.2885 19.9629 28.7226 20.9438C28.3737 21.5284 28.0529 22.0356 27.761 22.4643C27.4688 22.8938 27.2236 23.2096 27.0256 23.4118C26.8276 23.6143 26.6482 23.7776 26.4882 23.8995C26.3278 24.0227 26.205 24.074 26.1207 24.0554C26.0355 24.0368 25.9553 24.0178 25.8801 23.9983C25.7482 23.9136 25.6416 23.7983 25.5618 23.6519C25.4816 23.506 25.4274 23.322 25.3989 23.1005C25.3708 22.8789 25.3539 22.6879 25.3497 22.5275C25.3448 22.3671 25.3472 22.141 25.3568 21.8487C25.3663 21.5565 25.3708 21.3589 25.3708 21.2547C25.3708 20.8967 25.3778 20.5077 25.3923 20.0877C25.4064 19.6681 25.4184 19.3357 25.4274 19.0906C25.437 18.8459 25.4415 18.5863 25.4415 18.3126C25.4415 18.0398 25.425 17.8248 25.3919 17.669C25.3588 17.5135 25.3092 17.3631 25.2435 17.2163C25.1773 17.0704 25.0806 16.9571 24.9533 16.8773C24.826 16.7971 24.6681 16.7335 24.4795 16.6863C23.9793 16.5731 23.3431 16.5123 22.5701 16.5024C20.8161 16.4842 19.6892 16.5975 19.1894 16.8422C18.9914 16.9464 18.812 17.0873 18.652 17.2667C18.4821 17.4743 18.4585 17.5879 18.5813 17.6057C19.1472 17.6909 19.5478 17.8938 19.7835 18.2142L19.8686 18.3837C19.9343 18.5069 20.0005 18.7235 20.0666 19.0344C20.1328 19.3457 20.1749 19.6896 20.1939 20.067C20.2411 20.7553 20.2411 21.3444 20.1939 21.8351C20.1468 22.3258 20.1022 22.7073 20.0596 22.9802C20.017 23.2538 19.9534 23.475 19.8686 23.6449C19.7835 23.8152 19.7272 23.919 19.6987 23.9566C19.6702 23.9942 19.647 24.0178 19.628 24.0273C19.5052 24.074 19.3783 24.098 19.246 24.098C19.1138 24.098 18.9538 24.0318 18.7649 23.8995C18.5764 23.7681 18.3804 23.5862 18.1779 23.3551C17.9749 23.1244 17.7467 22.8012 17.4916 22.3861C17.237 21.9715 16.9728 21.4812 16.6996 20.9153L16.4735 20.5048C16.3321 20.2411 16.1386 19.8566 15.8935 19.3523C15.6483 18.8479 15.4313 18.3601 15.2428 17.8881C15.1671 17.6905 15.0543 17.5396 14.9034 17.4354L14.8327 17.3928C14.7856 17.3552 14.7099 17.3151 14.6062 17.2729C14.502 17.2304 14.3941 17.1998 14.2808 17.1807L10.4053 17.2089C10.0093 17.2089 9.74059 17.299 9.59921 17.478L9.54258 17.5627C9.51406 17.6103 9.5 17.6859 9.5 17.7893C9.5 17.8934 9.52852 18.0203 9.58516 18.1708C10.1511 19.5007 10.7662 20.783 11.4309 22.0178C12.0961 23.2534 12.6732 24.2484 13.1639 25.0025C13.6541 25.7573 14.1539 26.4688 14.6632 27.1384C15.1725 27.8081 15.5094 28.2368 15.6744 28.4253C15.8393 28.6142 15.9687 28.7556 16.0634 28.8499L16.4168 29.1897C16.6429 29.4158 16.9757 29.687 17.4139 30.0028C17.8525 30.3191 18.3378 30.6299 18.8707 30.9358C19.4031 31.2426 20.0236 31.4918 20.7305 31.6857C21.4378 31.8792 22.1261 31.9569 22.7954 31.9189H24.4221C24.7524 31.8908 25.0021 31.7874 25.1716 31.6076L25.2282 31.5369C25.2658 31.4807 25.3014 31.393 25.3344 31.2756C25.3671 31.1578 25.384 31.028 25.384 30.8866C25.3741 30.4811 25.4051 30.1153 25.4758 29.7903C25.5465 29.465 25.6267 29.2199 25.7164 29.0545C25.8061 28.89 25.907 28.7507 26.0207 28.6374C26.1339 28.5241 26.2137 28.4563 26.2613 28.4324C26.3084 28.4092 26.3464 28.3927 26.3745 28.3827C26.6006 28.3075 26.8669 28.3807 27.1736 28.6018C27.4799 28.8238 27.7676 29.0967 28.0363 29.4224C28.305 29.7478 28.6279 30.1128 29.0053 30.5187C29.3823 30.9243 29.7122 31.2256 29.9954 31.4236L30.2786 31.5939C30.4671 31.7068 30.7122 31.8106 31.014 31.9052C31.3158 31.9991 31.5799 32.023 31.806 31.9759L35.4269 31.9189C35.7853 31.9189 36.0635 31.8602 36.2615 31.7419C36.4595 31.625 36.5774 31.4943 36.615 31.3529C36.6526 31.2116 36.6551 31.052 36.622 30.8722C36.5889 30.6932 36.5559 30.5683 36.5232 30.4976Z" fill="black" fill-opacity="0.6"/>
</g>
<defs>
<clipPath id="clip0">
<rect width="27.1662" height="15.5" fill="currentColor" transform="translate(9.5 16.5)"/>
</clipPath>
</defs>
</svg>
