<svg width="40" height="40" viewBox="0 0 40 40" fill="none" xmlns="http://www.w3.org/2000/svg">
<path d="M20.0626 13.1252C16.2372 13.1252 13.125 16.2374 13.125 20.0629C13.125 23.8884 16.2372 27.0005 20.0626 27.0005C23.8881 27.0005 27.0003 23.8884 27.0003 20.0629C27.0003 16.2374 23.8881 13.1252 20.0626 13.1252ZM20.0626 25.8755C16.8575 25.8755 14.25 23.2681 14.25 20.0629C14.25 16.8577 16.8575 14.2503 20.0626 14.2503C23.2678 14.2503 25.8753 16.8577 25.8753 20.0629C25.8753 23.2681 23.2678 25.8755 20.0626 25.8755Z" fill="#81C784"/>
<path d="M37.0222 17.2507L32.5341 16.5715C32.2874 15.7398 31.954 14.932 31.54 14.1621L34.2311 10.5122C34.3961 10.2883 34.3728 9.9774 34.1763 9.78052L30.7202 6.32482C30.5233 6.12832 30.2125 6.10469 29.9886 6.2697L26.3503 8.95176C25.577 8.53175 24.764 8.19349 23.9255 7.94261L23.2501 3.47851C23.2084 3.20325 22.9722 3 22.6939 3H17.8068C17.5286 3 17.2923 3.20325 17.2507 3.47851L16.5753 7.94261C15.7368 8.19349 14.9238 8.53212 14.1505 8.95176L10.5122 6.2697C10.2883 6.10469 9.9774 6.12794 9.78052 6.32482L6.32482 9.78052C6.12832 9.97703 6.10469 10.2883 6.2697 10.5122L8.96075 14.1621C8.54675 14.932 8.21336 15.7398 7.96661 16.5715L3.47851 17.2507C3.20325 17.2923 3 17.5286 3 17.8068V22.6939C3 22.9722 3.20325 23.2084 3.47814 23.2501L7.98836 23.9326C8.23774 24.7554 8.57037 25.5522 8.98101 26.3105L6.26932 29.9886C6.10432 30.2125 6.12794 30.5234 6.32445 30.7202L9.78015 34.1759C9.97665 34.3728 10.2879 34.3961 10.5118 34.2311L14.2019 31.5107C14.9564 31.9158 15.7484 32.2435 16.5644 32.4884L17.2503 37.0222C17.2919 37.2975 17.5282 37.5008 17.8064 37.5008H22.6936C22.9718 37.5008 23.2081 37.2975 23.2497 37.0222L23.9356 32.4884C24.7516 32.2435 25.5436 31.9158 26.2981 31.5107L29.9882 34.2311C30.2121 34.3961 30.523 34.3724 30.7199 34.1759L34.1759 30.7202C34.3724 30.5237 34.3961 30.2125 34.2307 29.9886L31.519 26.3105C31.93 25.5522 32.2626 24.7554 32.5116 23.9326L37.0219 23.2501C37.2967 23.2084 37.5 22.9722 37.5 22.6939V17.8068C37.5004 17.5289 37.2971 17.2923 37.0222 17.2507ZM36.3754 22.2102L31.9866 22.8743C31.7661 22.9077 31.5861 23.0682 31.5276 23.2831C31.2636 24.2562 30.8721 25.1937 30.364 26.0701C30.2515 26.264 30.2646 26.5059 30.3977 26.6863L33.0378 30.2672L30.2661 33.0389L26.6743 30.391C26.4943 30.2586 26.2535 30.2447 26.0604 30.3561C25.1862 30.8582 24.2536 31.2445 23.2872 31.5036C23.0716 31.5618 22.9103 31.7418 22.8769 31.963L22.2094 36.3765H18.2898L17.6223 31.963C17.5889 31.7421 17.4277 31.5618 17.2121 31.5036C16.2457 31.2445 15.313 30.8582 14.4389 30.3561C14.2457 30.2451 14.0046 30.259 13.825 30.391L10.2332 33.0389L7.46147 30.2672L10.1015 26.6863C10.2343 26.5059 10.2478 26.264 10.1353 26.0701C9.62714 25.1941 9.23564 24.2562 8.97163 23.2831C8.91313 23.0678 8.73312 22.9077 8.51262 22.8743L4.1239 22.2102V18.2906L8.49274 17.6298C8.71437 17.5964 8.89513 17.4344 8.9525 17.2177C9.21239 16.2367 9.60314 15.2886 10.1147 14.3999C10.226 14.2064 10.2122 13.9652 10.0798 13.7856L7.46147 10.2339L10.2332 7.46222L13.7744 10.0727C13.9547 10.2054 14.1966 10.2189 14.3909 10.106C15.2815 9.58852 16.2344 9.19213 17.2222 8.92775C17.4382 8.87 17.5994 8.68962 17.6328 8.46837L18.2898 4.12465H22.2094L22.8664 8.46837C22.8998 8.68962 23.0611 8.87 23.2771 8.92775C24.2648 9.19213 25.2174 9.58852 26.1084 10.106C26.3023 10.2193 26.5441 10.2054 26.7249 10.0727L30.2661 7.46222L33.0378 10.2339L30.4195 13.7856C30.2871 13.9652 30.2732 14.2064 30.3846 14.3999C30.8957 15.2886 31.2869 16.2367 31.5467 17.2177C31.6041 17.4344 31.7849 17.5961 32.0065 17.6298L36.3754 18.2906V22.2102Z" fill="#81C784"/>
</svg>
