<svg width="48" height="48" viewBox="0 0 48 48" fill="none" xmlns="http://www.w3.org/2000/svg">
<circle cx="24" cy="24" r="24" fill="white"/>
<g clip-path="url(#clip0)">
<path d="M33.2557 14.6331C30.9169 12.2914 27.8063 11.0012 24.4924 11C17.6644 11 12.1066 16.5569 12.1042 23.3874C12.1033 25.5708 12.6738 27.7021 13.7576 29.5804L12 36L18.5672 34.2775C20.3765 35.2646 22.4139 35.7846 24.487 35.7855H24.4919C31.3195 35.7855 36.8772 30.2277 36.8801 23.3977C36.8822 20.087 35.595 16.9748 33.2557 14.6331ZM24.4928 33.693H24.4886C22.6409 33.6922 20.8287 33.1957 19.248 32.2578L18.8718 32.0346L14.9746 33.0568L16.0146 29.2572L15.7699 28.8674C14.7394 27.2279 14.195 25.3335 14.1958 23.3878C14.1979 17.7106 18.8172 13.092 24.4965 13.092C27.2466 13.0929 29.8318 14.1656 31.7759 16.1117C33.7199 18.0578 34.7897 20.6447 34.7889 23.396C34.7868 29.074 30.1679 33.693 24.4928 33.693Z" fill="black" fill-opacity="0.6"/>
<path d="M30.1407 25.9812C29.8311 25.8262 28.3095 25.0776 28.0255 24.9742C27.742 24.8709 27.5353 24.8192 27.329 25.1293C27.1228 25.4393 26.5296 26.1362 26.3489 26.3429C26.1683 26.5496 25.9876 26.5752 25.6784 26.4202C25.3688 26.2652 24.3714 25.9386 23.1892 24.8837C22.269 24.0628 21.6477 23.0492 21.4671 22.7396C21.2864 22.4296 21.4476 22.2621 21.6027 22.108C21.742 21.9691 21.9123 21.7463 22.0669 21.5656C22.2215 21.385 22.2731 21.2556 22.3765 21.0493C22.4798 20.8426 22.4281 20.662 22.3508 20.507C22.2735 20.352 21.6543 18.8283 21.3964 18.2087C21.1451 17.6052 20.89 17.687 20.6999 17.6775C20.5196 17.6684 20.313 17.6667 20.1067 17.6667C19.9004 17.6667 19.5652 17.744 19.2812 18.0541C18.9976 18.3641 18.1978 19.1127 18.1978 20.6364C18.1978 22.16 19.3068 23.632 19.4618 23.8383C19.6164 24.045 21.6444 27.1713 24.7496 28.5122C25.4883 28.8314 26.0645 29.0215 26.5143 29.1641C27.2559 29.3997 27.9305 29.3667 28.4641 29.2869C29.059 29.198 30.2953 28.5383 30.5533 27.8153C30.8112 27.0923 30.8112 26.4723 30.7339 26.3433C30.6566 26.2139 30.4504 26.1362 30.1407 25.9812Z" fill="black" fill-opacity="0.6"/>
</g>
<defs>
<clipPath id="clip0">
<rect width="24.8801" height="25" fill="currentColor" transform="translate(12 11)"/>
</clipPath>
</defs>
</svg>
