<svg width="160" height="48" viewBox="0 0 160 48" fill="none" xmlns="http://www.w3.org/2000/svg">
<g opacity="0.85">
<path d="M42.595 32.312V28.64H43.139C43.5583 28.6287 43.9097 28.3963 44.193 27.943C44.4877 27.4897 44.7143 26.7303 44.873 25.665C45.043 24.5883 45.1563 23.132 45.213 21.296L45.298 17.93H52.778V28.64H54.274V32.312H52.914V30H43.955V32.312H42.595ZM45.179 28.64H51.248V19.29H46.709L46.658 21.483C46.624 22.911 46.5503 24.1067 46.437 25.07C46.3237 26.0333 46.165 26.804 45.961 27.382C45.757 27.96 45.4963 28.3793 45.179 28.64ZM56.0562 30V21.143H57.5522V27.994L62.5162 21.126H63.8762V30H62.3802V23.285L57.4842 30H56.0562ZM69.0376 30.119C68.1762 30.119 67.4452 29.9603 66.8446 29.643C66.2552 29.3143 65.8019 28.861 65.4846 28.283L66.7086 27.739C66.9126 28.1017 67.2016 28.385 67.5756 28.589C67.9609 28.793 68.4256 28.895 68.9696 28.895C69.6156 28.895 70.1256 28.7533 70.4996 28.47C70.8736 28.1867 71.0606 27.807 71.0606 27.331C71.0606 26.9003 70.9076 26.5547 70.6016 26.294C70.3069 26.022 69.8876 25.8803 69.3436 25.869H68.4426V24.883H69.3946C69.7572 24.883 70.0519 24.7583 70.2786 24.509C70.5166 24.2483 70.6356 23.9253 70.6356 23.54C70.6356 23.1433 70.4939 22.826 70.2106 22.588C69.9272 22.3387 69.5022 22.214 68.9356 22.214C68.0402 22.214 67.3999 22.5767 67.0146 23.302L65.8756 22.69C66.1589 22.1573 66.5669 21.7437 67.0996 21.449C67.6436 21.143 68.2782 20.99 69.0036 20.99C69.8762 20.99 70.5902 21.1997 71.1456 21.619C71.7009 22.027 71.9786 22.605 71.9786 23.353C71.9786 23.7723 71.8766 24.1633 71.6726 24.526C71.4799 24.8773 71.1909 25.1437 70.8056 25.325C71.3382 25.4837 71.7462 25.7613 72.0296 26.158C72.3129 26.5433 72.4546 27.0023 72.4546 27.535C72.4546 28.351 72.1316 28.9857 71.4856 29.439C70.8509 29.8923 70.0349 30.119 69.0376 30.119ZM73.5549 27.433C73.5549 26.8663 73.7136 26.379 74.0309 25.971C74.3596 25.5517 74.8073 25.2287 75.3739 25.002C75.9406 24.7753 76.5979 24.662 77.3459 24.662C77.7426 24.662 78.1619 24.696 78.6039 24.764C79.0459 24.8207 79.4369 24.9113 79.7769 25.036V24.39C79.7769 23.71 79.5729 23.1773 79.1649 22.792C78.7569 22.3953 78.1789 22.197 77.4309 22.197C76.9436 22.197 76.4733 22.2877 76.0199 22.469C75.5779 22.639 75.1076 22.8883 74.6089 23.217L74.0649 22.163C74.6429 21.7663 75.2209 21.4717 75.7989 21.279C76.3769 21.075 76.9776 20.973 77.6009 20.973C78.7343 20.973 79.6296 21.2903 80.2869 21.925C80.9443 22.5483 81.2729 23.421 81.2729 24.543V28.3C81.2729 28.6513 81.4316 28.8327 81.7489 28.844V30C81.6016 30.0227 81.4713 30.0397 81.3579 30.051C81.2559 30.0623 81.1709 30.068 81.1029 30.068C80.7516 30.068 80.4853 29.9717 80.3039 29.779C80.1339 29.5863 80.0376 29.3823 80.0149 29.167L79.9809 28.606C79.5956 29.1047 79.0913 29.49 78.4679 29.762C77.8446 30.034 77.2269 30.17 76.6149 30.17C76.0256 30.17 75.4986 30.051 75.0339 29.813C74.5693 29.5637 74.2066 29.235 73.9459 28.827C73.6853 28.4077 73.5549 27.943 73.5549 27.433ZM79.3349 28.062C79.4709 27.9033 79.5786 27.7447 79.6579 27.586C79.7373 27.416 79.7769 27.2743 79.7769 27.161V26.056C79.0516 25.7727 78.3036 25.631 77.5329 25.631C76.7736 25.631 76.1559 25.784 75.6799 26.09C75.2153 26.3847 74.9829 26.7927 74.9829 27.314C74.9829 27.5973 75.0566 27.875 75.2039 28.147C75.3626 28.4077 75.5893 28.623 75.8839 28.793C76.1899 28.963 76.5639 29.048 77.0059 29.048C77.4706 29.048 77.9126 28.9573 78.3319 28.776C78.7513 28.5833 79.0856 28.3453 79.3349 28.062ZM83.648 30V21.143H85.144V27.994L90.108 21.126H91.468V30H89.972V23.285L85.076 30H83.648ZM87.575 20.123C86.759 20.123 86.1413 19.9303 85.722 19.545C85.3027 19.1483 85.093 18.661 85.093 18.083H86.147C86.147 18.4003 86.2547 18.6667 86.47 18.882C86.6967 19.086 87.065 19.188 87.575 19.188C88.0737 19.188 88.425 19.0917 88.629 18.899C88.833 18.695 88.9577 18.423 89.003 18.083H90.057C90.057 18.661 89.8473 19.1483 89.428 19.545C89.0087 19.9303 88.391 20.123 87.575 20.123ZM93.8414 30V21.126H95.3374V24.798H99.9614V21.126H101.457V30H99.9614V26.124H95.3374V30H93.8414ZM103.75 26.039V24.679H108.765V26.039H103.75ZM114.985 30.17C114.101 30.17 113.319 29.9603 112.639 29.541C111.959 29.1103 111.426 28.5437 111.041 27.841C110.655 27.1383 110.463 26.3733 110.463 25.546C110.463 24.7073 110.65 23.9423 111.024 23.251C111.398 22.5597 111.925 22.01 112.605 21.602C113.285 21.1827 114.072 20.973 114.968 20.973C115.84 20.973 116.6 21.1713 117.246 21.568C117.903 21.9533 118.39 22.4747 118.708 23.132L117.246 23.591C117.019 23.1717 116.702 22.8487 116.294 22.622C115.886 22.384 115.432 22.265 114.934 22.265C114.39 22.265 113.891 22.4067 113.438 22.69C112.996 22.9733 112.644 23.3643 112.384 23.863C112.123 24.3503 111.993 24.9113 111.993 25.546C111.993 26.1693 112.123 26.736 112.384 27.246C112.656 27.7447 113.013 28.1413 113.455 28.436C113.908 28.7307 114.407 28.878 114.951 28.878C115.302 28.878 115.636 28.8157 115.954 28.691C116.282 28.5663 116.566 28.402 116.804 28.198C117.053 27.9827 117.223 27.7503 117.314 27.501L118.776 27.943C118.515 28.589 118.039 29.1217 117.348 29.541C116.668 29.9603 115.88 30.17 114.985 30.17ZM120.454 30V21.143H121.95V27.994L126.914 21.126H128.274V30H126.778V23.285L121.882 30H120.454ZM132.823 30V22.452H129.763V21.126H137.379V22.452H134.319V30H132.823ZM138.865 30V21.143H140.361V27.994L145.325 21.126H146.685V30H145.189V23.285L140.293 30H138.865Z" fill="#2D392E"/>
<g opacity="0.9">
<path fill-rule="evenodd" clip-rule="evenodd" d="M1.77951 28.7854L3.46254 28.2323L4.89537 29.1307V32.9639H5.97V27.4536L9.37298 26.3156L10.7461 27.2141V28.5317L11.9401 29.0109V25.7766L13.2536 25.2375V23.261L13.7312 23.9798L14.2088 23.5006L15.9999 14.2769L17.7909 23.5006L18.2685 23.9798L18.7461 23.261V25.2375L20.0596 25.7766V31.1671L21.2536 30.6879V24.8782L22.6267 23.9798L26.0297 25.1177V31.227H27.1043V29.1307L28.5372 28.2323L30.2205 28.7855C30.726 27.2826 31 25.6733 31 24C31 15.7157 24.2843 9 16 9C7.71573 9 1 15.7157 1 24C1 25.6733 1.27397 27.2825 1.77951 28.7854ZM0.829216 29.0977C0.291422 27.4966 0 25.7823 0 24C0 15.1634 7.16344 8 16 8C24.8366 8 32 15.1634 32 24C32 32.8366 24.8366 40 16 40C14.3464 40 12.7514 39.7492 11.251 39.2834C10.7469 39.127 10.2535 38.9463 9.77208 38.7426C5.57377 36.967 2.2911 33.4503 0.829102 29.0977L0.829216 29.0977Z" fill="#2D392E"/>
</g>
</g>
</svg>
