<svg width="155" height="32" viewBox="0 0 155 32" fill="none" xmlns="http://www.w3.org/2000/svg">
<g opacity="0.85">
<path d="M42.63 24.448V20.56H43.206C43.65 20.548 44.022 20.302 44.322 19.822C44.634 19.342 44.874 18.538 45.042 17.41C45.222 16.27 45.342 14.728 45.402 12.784L45.492 9.22H53.412V20.56H54.996V24.448H53.556V22H44.07V24.448H42.63ZM45.366 20.56H51.792V10.66H46.986L46.932 12.982C46.896 14.494 46.818 15.76 46.698 16.78C46.578 17.8 46.41 18.616 46.194 19.228C45.978 19.84 45.702 20.284 45.366 20.56ZM56.883 22V12.622H58.467V19.876L63.723 12.604H65.163V22H63.579V14.89L58.395 22H56.883ZM70.628 22.126C69.716 22.126 68.942 21.958 68.306 21.622C67.682 21.274 67.202 20.794 66.866 20.182L68.162 19.606C68.378 19.99 68.684 20.29 69.08 20.506C69.488 20.722 69.98 20.83 70.556 20.83C71.24 20.83 71.78 20.68 72.176 20.38C72.572 20.08 72.77 19.678 72.77 19.174C72.77 18.718 72.608 18.352 72.284 18.076C71.972 17.788 71.528 17.638 70.952 17.626H69.998V16.582H71.006C71.39 16.582 71.702 16.45 71.942 16.186C72.194 15.91 72.32 15.568 72.32 15.16C72.32 14.74 72.17 14.404 71.87 14.152C71.57 13.888 71.12 13.756 70.52 13.756C69.572 13.756 68.894 14.14 68.486 14.908L67.28 14.26C67.58 13.696 68.012 13.258 68.576 12.946C69.152 12.622 69.824 12.46 70.592 12.46C71.516 12.46 72.272 12.682 72.86 13.126C73.448 13.558 73.742 14.17 73.742 14.962C73.742 15.406 73.634 15.82 73.418 16.204C73.214 16.576 72.908 16.858 72.5 17.05C73.064 17.218 73.496 17.512 73.796 17.932C74.096 18.34 74.246 18.826 74.246 19.39C74.246 20.254 73.904 20.926 73.22 21.406C72.548 21.886 71.684 22.126 70.628 22.126ZM75.4111 19.282C75.4111 18.682 75.5791 18.166 75.9151 17.734C76.2631 17.29 76.7371 16.948 77.3371 16.708C77.9371 16.468 78.6331 16.348 79.4251 16.348C79.8451 16.348 80.2891 16.384 80.7571 16.456C81.2251 16.516 81.6391 16.612 81.9991 16.744V16.06C81.9991 15.34 81.7831 14.776 81.3511 14.368C80.9191 13.948 80.3071 13.738 79.5151 13.738C78.9991 13.738 78.5011 13.834 78.0211 14.026C77.5531 14.206 77.0551 14.47 76.5271 14.818L75.9511 13.702C76.5631 13.282 77.1751 12.97 77.7871 12.766C78.3991 12.55 79.0351 12.442 79.6951 12.442C80.8951 12.442 81.8431 12.778 82.5391 13.45C83.2351 14.11 83.5831 15.034 83.5831 16.222V20.2C83.5831 20.572 83.7511 20.764 84.0871 20.776V22C83.9311 22.024 83.7931 22.042 83.6731 22.054C83.5651 22.066 83.4751 22.072 83.4031 22.072C83.0311 22.072 82.7491 21.97 82.5571 21.766C82.3771 21.562 82.2751 21.346 82.2511 21.118L82.2151 20.524C81.8071 21.052 81.2731 21.46 80.6131 21.748C79.9531 22.036 79.2991 22.18 78.6511 22.18C78.0271 22.18 77.4691 22.054 76.9771 21.802C76.4851 21.538 76.1011 21.19 75.8251 20.758C75.5491 20.314 75.4111 19.822 75.4111 19.282ZM81.5311 19.948C81.6751 19.78 81.7891 19.612 81.8731 19.444C81.9571 19.264 81.9991 19.114 81.9991 18.994V17.824C81.2311 17.524 80.4391 17.374 79.6231 17.374C78.8191 17.374 78.1651 17.536 77.6611 17.86C77.1691 18.172 76.9231 18.604 76.9231 19.156C76.9231 19.456 77.0011 19.75 77.1571 20.038C77.3251 20.314 77.5651 20.542 77.8771 20.722C78.2011 20.902 78.5971 20.992 79.0651 20.992C79.5571 20.992 80.0251 20.896 80.4691 20.704C80.9131 20.5 81.2671 20.248 81.5311 19.948ZM86.0979 22V12.622H87.6819V19.876L92.9379 12.604H94.3779V22H92.7939V14.89L87.6099 22H86.0979ZM90.2559 11.542C89.3919 11.542 88.7379 11.338 88.2939 10.93C87.8499 10.51 87.6279 9.994 87.6279 9.382H88.7439C88.7439 9.718 88.8579 10 89.0859 10.228C89.3259 10.444 89.7159 10.552 90.2559 10.552C90.7839 10.552 91.1559 10.45 91.3719 10.246C91.5879 10.03 91.7199 9.742 91.7679 9.382H92.8839C92.8839 9.994 92.6619 10.51 92.2179 10.93C91.7739 11.338 91.1199 11.542 90.2559 11.542ZM96.8909 22V12.604H98.4749V16.492H103.371V12.604H104.955V22H103.371V17.896H98.4749V22H96.8909ZM107.382 17.806V16.366H112.692V17.806H107.382ZM119.278 22.18C118.342 22.18 117.514 21.958 116.794 21.514C116.074 21.058 115.51 20.458 115.102 19.714C114.694 18.97 114.49 18.16 114.49 17.284C114.49 16.396 114.688 15.586 115.084 14.854C115.48 14.122 116.038 13.54 116.758 13.108C117.478 12.664 118.312 12.442 119.26 12.442C120.184 12.442 120.988 12.652 121.672 13.072C122.368 13.48 122.884 14.032 123.22 14.728L121.672 15.214C121.432 14.77 121.096 14.428 120.664 14.188C120.232 13.936 119.752 13.81 119.224 13.81C118.648 13.81 118.12 13.96 117.64 14.26C117.172 14.56 116.8 14.974 116.524 15.502C116.248 16.018 116.11 16.612 116.11 17.284C116.11 17.944 116.248 18.544 116.524 19.084C116.812 19.612 117.19 20.032 117.658 20.344C118.138 20.656 118.666 20.812 119.242 20.812C119.614 20.812 119.968 20.746 120.304 20.614C120.652 20.482 120.952 20.308 121.204 20.092C121.468 19.864 121.648 19.618 121.744 19.354L123.292 19.822C123.016 20.506 122.512 21.07 121.78 21.514C121.06 21.958 120.226 22.18 119.278 22.18ZM125.069 22V12.622H126.653V19.876L131.909 12.604H133.349V22H131.765V14.89L126.581 22H125.069ZM138.166 22V14.008H134.926V12.604H142.99V14.008H139.75V22H138.166ZM144.563 22V12.622H146.147V19.876L151.403 12.604H152.843V22H151.259V14.89L146.075 22H144.563Z" fill="black" fill-opacity="0.85"/>
<path fill-rule="evenodd" clip-rule="evenodd" d="M1.77951 20.7854L3.46254 20.2323L4.89537 21.1307V24.9639H5.97V19.4536L9.37298 18.3156L10.7461 19.2141V20.5317L11.9401 21.0109V17.7766L13.2536 17.2375V15.261L13.7312 15.9798L14.2088 15.5006L15.9999 6.27686L17.7909 15.5006L18.2685 15.9798L18.7461 15.261V17.2375L20.0596 17.7766V23.1671L21.2536 22.6879V16.8782L22.6267 15.9798L26.0297 17.1177V23.227H27.1043V21.1307L28.5372 20.2323L30.2205 20.7855C30.726 19.2826 31 17.6733 31 16C31 7.71573 24.2843 1 16 1C7.71573 1 1 7.71573 1 16C1 17.6733 1.27397 19.2825 1.77951 20.7854ZM0.829216 21.0977C0.291422 19.4966 0 17.7823 0 16C0 7.16344 7.16344 0 16 0C24.8366 0 32 7.16344 32 16C32 24.8366 24.8366 32 16 32C14.3464 32 12.7514 31.7492 11.251 31.2834C10.7469 31.127 10.2535 30.9463 9.77208 30.7426C5.57377 28.967 2.2911 25.4503 0.829102 21.0977L0.829216 21.0977Z" fill="black" fill-opacity="0.75"/>
</g>
</svg>
