<svg width="324" height="72" viewBox="0 0 324 72" fill="none" xmlns="http://www.w3.org/2000/svg">
<g opacity="0.4">
<mask id="path-1-outside-1" maskUnits="userSpaceOnUse" x="1.30396" y="12.592" width="320" height="55" fill="black">
<rect fill="white" x="1.30396" y="12.592" width="320" height="55"/>
<path d="M17.984 55.768C15.7653 55.768 13.696 55.4054 11.776 54.68C9.89862 53.912 8.25596 52.824 6.84796 51.416C5.43996 50.008 4.33062 48.28 3.51996 46.232C2.70929 44.1414 2.30396 41.7734 2.30396 39.128C2.30396 36.4827 2.75196 34.136 3.64796 32.088C4.54396 29.9974 5.73862 28.248 7.23196 26.84C8.76796 25.432 10.5386 24.3654 12.544 23.64C14.5493 22.872 16.64 22.488 18.816 22.488C20.7786 22.488 22.5066 22.808 24 23.448C25.536 24.088 26.9013 24.8987 28.096 25.88L23.68 31.96C22.1866 30.7227 20.7573 30.104 19.392 30.104C17.088 30.104 15.2746 30.9147 13.952 32.536C12.6293 34.1574 11.968 36.3547 11.968 39.128C11.968 41.9014 12.6293 44.0987 13.952 45.72C15.3173 47.3414 17.024 48.152 19.072 48.152C20.096 48.152 21.0773 47.9387 22.016 47.512C22.9973 47.0427 23.9146 46.488 24.768 45.848L28.48 51.992C26.9013 53.3574 25.1946 54.3387 23.36 54.936C21.5253 55.4907 19.7333 55.768 17.984 55.768ZM45.0555 55V49.624C47.6581 47.192 50.0261 44.9307 52.1595 42.84C54.3355 40.7067 56.1915 38.7227 57.7275 36.888C59.3061 35.0107 60.5221 33.2827 61.3755 31.704C62.2715 30.0827 62.7195 28.5467 62.7195 27.096C62.7195 25.0907 62.2075 23.576 61.1835 22.552C60.1595 21.4854 58.7515 20.952 56.9595 20.952C55.4661 20.952 54.1435 21.3787 52.9915 22.232C51.8395 23.0427 50.7515 24.0027 49.7275 25.112L44.6075 20.056C46.6128 17.9227 48.6608 16.3227 50.7515 15.256C52.8421 14.1467 55.3381 13.592 58.2395 13.592C60.2448 13.592 62.0581 13.912 63.6795 14.552C65.3435 15.1494 66.7728 16.024 67.9675 17.176C69.1621 18.2854 70.0795 19.6294 70.7195 21.208C71.3595 22.7867 71.6795 24.5574 71.6795 26.52C71.6795 28.2267 71.3168 29.976 70.5915 31.768C69.8661 33.5174 68.8848 35.288 67.6475 37.08C66.4528 38.8294 65.0661 40.6 63.4875 42.392C61.9515 44.1414 60.3515 45.8694 58.6875 47.576C59.7115 47.448 60.8421 47.3414 62.0795 47.256C63.3595 47.128 64.4901 47.064 65.4715 47.064H73.6635V55H45.0555ZM93.396 55.768C91.22 55.768 89.236 55.32 87.444 54.424C85.652 53.4854 84.116 52.12 82.836 50.328C81.5986 48.536 80.6173 46.3174 79.892 43.672C79.2093 41.0267 78.868 37.976 78.868 34.52C78.868 31.064 79.2093 28.0347 79.892 25.432C80.6173 22.8294 81.5986 20.6534 82.836 18.904C84.116 17.112 85.652 15.7894 87.444 14.936C89.236 14.04 91.22 13.592 93.396 13.592C95.572 13.592 97.556 14.04 99.348 14.936C101.14 15.7894 102.655 17.112 103.892 18.904C105.172 20.6534 106.153 22.8294 106.836 25.432C107.561 28.0347 107.924 31.064 107.924 34.52C107.924 37.976 107.561 41.0267 106.836 43.672C106.153 46.3174 105.172 48.536 103.892 50.328C102.655 52.12 101.14 53.4854 99.348 54.424C97.556 55.32 95.572 55.768 93.396 55.768ZM93.396 48.472C94.2066 48.472 94.9533 48.28 95.636 47.896C96.3186 47.4694 96.916 46.7227 97.428 45.656C97.94 44.5894 98.324 43.16 98.58 41.368C98.8786 39.576 99.028 37.2934 99.028 34.52C99.028 31.7467 98.8786 29.4854 98.58 27.736C98.324 25.944 97.94 24.5574 97.428 23.576C96.916 22.552 96.3186 21.848 95.636 21.464C94.9533 21.08 94.2066 20.888 93.396 20.888C92.628 20.888 91.9026 21.08 91.22 21.464C90.5373 21.848 89.94 22.552 89.428 23.576C88.916 24.5574 88.5106 25.944 88.212 27.736C87.9133 29.4854 87.764 31.7467 87.764 34.52C87.764 37.2934 87.9133 39.576 88.212 41.368C88.5106 43.16 88.916 44.5894 89.428 45.656C89.94 46.7227 90.5373 47.4694 91.22 47.896C91.9026 48.28 92.628 48.472 93.396 48.472ZM127.208 55.768C125.032 55.768 123.048 55.32 121.256 54.424C119.464 53.4854 117.928 52.12 116.648 50.328C115.411 48.536 114.43 46.3174 113.704 43.672C113.022 41.0267 112.68 37.976 112.68 34.52C112.68 31.064 113.022 28.0347 113.704 25.432C114.43 22.8294 115.411 20.6534 116.648 18.904C117.928 17.112 119.464 15.7894 121.256 14.936C123.048 14.04 125.032 13.592 127.208 13.592C129.384 13.592 131.368 14.04 133.16 14.936C134.952 15.7894 136.467 17.112 137.704 18.904C138.984 20.6534 139.966 22.8294 140.648 25.432C141.374 28.0347 141.736 31.064 141.736 34.52C141.736 37.976 141.374 41.0267 140.648 43.672C139.966 46.3174 138.984 48.536 137.704 50.328C136.467 52.12 134.952 53.4854 133.16 54.424C131.368 55.32 129.384 55.768 127.208 55.768ZM127.208 48.472C128.019 48.472 128.766 48.28 129.448 47.896C130.131 47.4694 130.728 46.7227 131.24 45.656C131.752 44.5894 132.136 43.16 132.392 41.368C132.691 39.576 132.84 37.2934 132.84 34.52C132.84 31.7467 132.691 29.4854 132.392 27.736C132.136 25.944 131.752 24.5574 131.24 23.576C130.728 22.552 130.131 21.848 129.448 21.464C128.766 21.08 128.019 20.888 127.208 20.888C126.44 20.888 125.715 21.08 125.032 21.464C124.35 21.848 123.752 22.552 123.24 23.576C122.728 24.5574 122.323 25.944 122.024 27.736C121.726 29.4854 121.576 31.7467 121.576 34.52C121.576 37.2934 121.726 39.576 122.024 41.368C122.323 43.16 122.728 44.5894 123.24 45.656C123.752 46.7227 124.35 47.4694 125.032 47.896C125.715 48.28 126.44 48.472 127.208 48.472ZM148.605 55V47.384H157.437V23.896H149.821V18.072C152.04 17.6454 153.917 17.1334 155.453 16.536C156.989 15.9387 158.482 15.2134 159.933 14.36H166.845V47.384H174.461V55H148.605ZM194.91 55V23.256H216.734V30.616H204.318V55H194.91ZM233.979 55.768C231.974 55.768 230.033 55.4054 228.155 54.68C226.278 53.912 224.614 52.824 223.163 51.416C221.755 50.008 220.625 48.28 219.771 46.232C218.918 44.1414 218.491 41.7734 218.491 39.128C218.491 36.4827 218.918 34.136 219.771 32.088C220.625 29.9974 221.755 28.248 223.163 26.84C224.614 25.432 226.278 24.3654 228.155 23.64C230.033 22.872 231.974 22.488 233.979 22.488C235.985 22.488 237.905 22.872 239.739 23.64C241.617 24.3654 243.259 25.432 244.667 26.84C246.118 28.248 247.27 29.9974 248.123 32.088C248.977 34.136 249.403 36.4827 249.403 39.128C249.403 41.7734 248.977 44.1414 248.123 46.232C247.27 48.28 246.118 50.008 244.667 51.416C243.259 52.824 241.617 53.912 239.739 54.68C237.905 55.4054 235.985 55.768 233.979 55.768ZM233.979 48.152C235.899 48.152 237.35 47.3414 238.331 45.72C239.313 44.0987 239.803 41.9014 239.803 39.128C239.803 36.3547 239.313 34.1574 238.331 32.536C237.35 30.9147 235.899 30.104 233.979 30.104C232.017 30.104 230.545 30.9147 229.563 32.536C228.625 34.1574 228.155 36.3547 228.155 39.128C228.155 41.9014 228.625 44.0987 229.563 45.72C230.545 47.3414 232.017 48.152 233.979 48.152ZM261.415 55V66.008H253.287L252.391 53.784V47.64H254.375C254.759 47.4267 255.122 47.128 255.463 46.744C255.805 46.3174 256.125 45.6774 256.423 44.824C256.722 43.928 256.999 42.776 257.255 41.368C257.554 39.96 257.831 38.1254 258.087 35.864L259.559 23.256H283.239V47.64H288.295V53.784L287.399 66.008H279.335V55H261.415ZM266.215 37.976C266.002 40.0667 265.661 41.9014 265.191 43.48C264.722 45.0587 264.189 46.4454 263.591 47.64H273.831V30.616H267.047L266.215 37.976ZM301.722 55.768C300.272 55.768 298.949 55.512 297.754 55C296.602 54.5307 295.621 53.8694 294.81 53.016C294 52.12 293.36 51.096 292.89 49.944C292.464 48.792 292.25 47.5334 292.25 46.168C292.25 42.84 293.658 40.2374 296.474 38.36C299.29 36.4827 303.834 35.224 310.106 34.584C310.021 33.176 309.594 32.0667 308.826 31.256C308.101 30.4027 306.864 29.976 305.114 29.976C303.749 29.976 302.384 30.232 301.018 30.744C299.696 31.256 298.266 31.96 296.73 32.856L293.338 26.648C295.386 25.4107 297.52 24.408 299.738 23.64C302 22.872 304.389 22.488 306.906 22.488C311.002 22.488 314.117 23.6614 316.25 26.008C318.426 28.312 319.514 31.9174 319.514 36.824V55H311.834L311.194 51.736H310.938C309.573 52.9307 308.144 53.912 306.65 54.68C305.157 55.4054 303.514 55.768 301.722 55.768ZM304.922 48.472C305.989 48.472 306.906 48.2374 307.674 47.768C308.442 47.2987 309.253 46.6374 310.106 45.784V40.216C306.778 40.6854 304.474 41.368 303.194 42.264C301.914 43.16 301.274 44.2267 301.274 45.464C301.274 46.488 301.594 47.256 302.234 47.768C302.917 48.2374 303.813 48.472 304.922 48.472Z"/>
</mask>
<path d="M17.984 55.768C15.7653 55.768 13.696 55.4054 11.776 54.68C9.89862 53.912 8.25596 52.824 6.84796 51.416C5.43996 50.008 4.33062 48.28 3.51996 46.232C2.70929 44.1414 2.30396 41.7734 2.30396 39.128C2.30396 36.4827 2.75196 34.136 3.64796 32.088C4.54396 29.9974 5.73862 28.248 7.23196 26.84C8.76796 25.432 10.5386 24.3654 12.544 23.64C14.5493 22.872 16.64 22.488 18.816 22.488C20.7786 22.488 22.5066 22.808 24 23.448C25.536 24.088 26.9013 24.8987 28.096 25.88L23.68 31.96C22.1866 30.7227 20.7573 30.104 19.392 30.104C17.088 30.104 15.2746 30.9147 13.952 32.536C12.6293 34.1574 11.968 36.3547 11.968 39.128C11.968 41.9014 12.6293 44.0987 13.952 45.72C15.3173 47.3414 17.024 48.152 19.072 48.152C20.096 48.152 21.0773 47.9387 22.016 47.512C22.9973 47.0427 23.9146 46.488 24.768 45.848L28.48 51.992C26.9013 53.3574 25.1946 54.3387 23.36 54.936C21.5253 55.4907 19.7333 55.768 17.984 55.768ZM45.0555 55V49.624C47.6581 47.192 50.0261 44.9307 52.1595 42.84C54.3355 40.7067 56.1915 38.7227 57.7275 36.888C59.3061 35.0107 60.5221 33.2827 61.3755 31.704C62.2715 30.0827 62.7195 28.5467 62.7195 27.096C62.7195 25.0907 62.2075 23.576 61.1835 22.552C60.1595 21.4854 58.7515 20.952 56.9595 20.952C55.4661 20.952 54.1435 21.3787 52.9915 22.232C51.8395 23.0427 50.7515 24.0027 49.7275 25.112L44.6075 20.056C46.6128 17.9227 48.6608 16.3227 50.7515 15.256C52.8421 14.1467 55.3381 13.592 58.2395 13.592C60.2448 13.592 62.0581 13.912 63.6795 14.552C65.3435 15.1494 66.7728 16.024 67.9675 17.176C69.1621 18.2854 70.0795 19.6294 70.7195 21.208C71.3595 22.7867 71.6795 24.5574 71.6795 26.52C71.6795 28.2267 71.3168 29.976 70.5915 31.768C69.8661 33.5174 68.8848 35.288 67.6475 37.08C66.4528 38.8294 65.0661 40.6 63.4875 42.392C61.9515 44.1414 60.3515 45.8694 58.6875 47.576C59.7115 47.448 60.8421 47.3414 62.0795 47.256C63.3595 47.128 64.4901 47.064 65.4715 47.064H73.6635V55H45.0555ZM93.396 55.768C91.22 55.768 89.236 55.32 87.444 54.424C85.652 53.4854 84.116 52.12 82.836 50.328C81.5986 48.536 80.6173 46.3174 79.892 43.672C79.2093 41.0267 78.868 37.976 78.868 34.52C78.868 31.064 79.2093 28.0347 79.892 25.432C80.6173 22.8294 81.5986 20.6534 82.836 18.904C84.116 17.112 85.652 15.7894 87.444 14.936C89.236 14.04 91.22 13.592 93.396 13.592C95.572 13.592 97.556 14.04 99.348 14.936C101.14 15.7894 102.655 17.112 103.892 18.904C105.172 20.6534 106.153 22.8294 106.836 25.432C107.561 28.0347 107.924 31.064 107.924 34.52C107.924 37.976 107.561 41.0267 106.836 43.672C106.153 46.3174 105.172 48.536 103.892 50.328C102.655 52.12 101.14 53.4854 99.348 54.424C97.556 55.32 95.572 55.768 93.396 55.768ZM93.396 48.472C94.2066 48.472 94.9533 48.28 95.636 47.896C96.3186 47.4694 96.916 46.7227 97.428 45.656C97.94 44.5894 98.324 43.16 98.58 41.368C98.8786 39.576 99.028 37.2934 99.028 34.52C99.028 31.7467 98.8786 29.4854 98.58 27.736C98.324 25.944 97.94 24.5574 97.428 23.576C96.916 22.552 96.3186 21.848 95.636 21.464C94.9533 21.08 94.2066 20.888 93.396 20.888C92.628 20.888 91.9026 21.08 91.22 21.464C90.5373 21.848 89.94 22.552 89.428 23.576C88.916 24.5574 88.5106 25.944 88.212 27.736C87.9133 29.4854 87.764 31.7467 87.764 34.52C87.764 37.2934 87.9133 39.576 88.212 41.368C88.5106 43.16 88.916 44.5894 89.428 45.656C89.94 46.7227 90.5373 47.4694 91.22 47.896C91.9026 48.28 92.628 48.472 93.396 48.472ZM127.208 55.768C125.032 55.768 123.048 55.32 121.256 54.424C119.464 53.4854 117.928 52.12 116.648 50.328C115.411 48.536 114.43 46.3174 113.704 43.672C113.022 41.0267 112.68 37.976 112.68 34.52C112.68 31.064 113.022 28.0347 113.704 25.432C114.43 22.8294 115.411 20.6534 116.648 18.904C117.928 17.112 119.464 15.7894 121.256 14.936C123.048 14.04 125.032 13.592 127.208 13.592C129.384 13.592 131.368 14.04 133.16 14.936C134.952 15.7894 136.467 17.112 137.704 18.904C138.984 20.6534 139.966 22.8294 140.648 25.432C141.374 28.0347 141.736 31.064 141.736 34.52C141.736 37.976 141.374 41.0267 140.648 43.672C139.966 46.3174 138.984 48.536 137.704 50.328C136.467 52.12 134.952 53.4854 133.16 54.424C131.368 55.32 129.384 55.768 127.208 55.768ZM127.208 48.472C128.019 48.472 128.766 48.28 129.448 47.896C130.131 47.4694 130.728 46.7227 131.24 45.656C131.752 44.5894 132.136 43.16 132.392 41.368C132.691 39.576 132.84 37.2934 132.84 34.52C132.84 31.7467 132.691 29.4854 132.392 27.736C132.136 25.944 131.752 24.5574 131.24 23.576C130.728 22.552 130.131 21.848 129.448 21.464C128.766 21.08 128.019 20.888 127.208 20.888C126.44 20.888 125.715 21.08 125.032 21.464C124.35 21.848 123.752 22.552 123.24 23.576C122.728 24.5574 122.323 25.944 122.024 27.736C121.726 29.4854 121.576 31.7467 121.576 34.52C121.576 37.2934 121.726 39.576 122.024 41.368C122.323 43.16 122.728 44.5894 123.24 45.656C123.752 46.7227 124.35 47.4694 125.032 47.896C125.715 48.28 126.44 48.472 127.208 48.472ZM148.605 55V47.384H157.437V23.896H149.821V18.072C152.04 17.6454 153.917 17.1334 155.453 16.536C156.989 15.9387 158.482 15.2134 159.933 14.36H166.845V47.384H174.461V55H148.605ZM194.91 55V23.256H216.734V30.616H204.318V55H194.91ZM233.979 55.768C231.974 55.768 230.033 55.4054 228.155 54.68C226.278 53.912 224.614 52.824 223.163 51.416C221.755 50.008 220.625 48.28 219.771 46.232C218.918 44.1414 218.491 41.7734 218.491 39.128C218.491 36.4827 218.918 34.136 219.771 32.088C220.625 29.9974 221.755 28.248 223.163 26.84C224.614 25.432 226.278 24.3654 228.155 23.64C230.033 22.872 231.974 22.488 233.979 22.488C235.985 22.488 237.905 22.872 239.739 23.64C241.617 24.3654 243.259 25.432 244.667 26.84C246.118 28.248 247.27 29.9974 248.123 32.088C248.977 34.136 249.403 36.4827 249.403 39.128C249.403 41.7734 248.977 44.1414 248.123 46.232C247.27 48.28 246.118 50.008 244.667 51.416C243.259 52.824 241.617 53.912 239.739 54.68C237.905 55.4054 235.985 55.768 233.979 55.768ZM233.979 48.152C235.899 48.152 237.35 47.3414 238.331 45.72C239.313 44.0987 239.803 41.9014 239.803 39.128C239.803 36.3547 239.313 34.1574 238.331 32.536C237.35 30.9147 235.899 30.104 233.979 30.104C232.017 30.104 230.545 30.9147 229.563 32.536C228.625 34.1574 228.155 36.3547 228.155 39.128C228.155 41.9014 228.625 44.0987 229.563 45.72C230.545 47.3414 232.017 48.152 233.979 48.152ZM261.415 55V66.008H253.287L252.391 53.784V47.64H254.375C254.759 47.4267 255.122 47.128 255.463 46.744C255.805 46.3174 256.125 45.6774 256.423 44.824C256.722 43.928 256.999 42.776 257.255 41.368C257.554 39.96 257.831 38.1254 258.087 35.864L259.559 23.256H283.239V47.64H288.295V53.784L287.399 66.008H279.335V55H261.415ZM266.215 37.976C266.002 40.0667 265.661 41.9014 265.191 43.48C264.722 45.0587 264.189 46.4454 263.591 47.64H273.831V30.616H267.047L266.215 37.976ZM301.722 55.768C300.272 55.768 298.949 55.512 297.754 55C296.602 54.5307 295.621 53.8694 294.81 53.016C294 52.12 293.36 51.096 292.89 49.944C292.464 48.792 292.25 47.5334 292.25 46.168C292.25 42.84 293.658 40.2374 296.474 38.36C299.29 36.4827 303.834 35.224 310.106 34.584C310.021 33.176 309.594 32.0667 308.826 31.256C308.101 30.4027 306.864 29.976 305.114 29.976C303.749 29.976 302.384 30.232 301.018 30.744C299.696 31.256 298.266 31.96 296.73 32.856L293.338 26.648C295.386 25.4107 297.52 24.408 299.738 23.64C302 22.872 304.389 22.488 306.906 22.488C311.002 22.488 314.117 23.6614 316.25 26.008C318.426 28.312 319.514 31.9174 319.514 36.824V55H311.834L311.194 51.736H310.938C309.573 52.9307 308.144 53.912 306.65 54.68C305.157 55.4054 303.514 55.768 301.722 55.768ZM304.922 48.472C305.989 48.472 306.906 48.2374 307.674 47.768C308.442 47.2987 309.253 46.6374 310.106 45.784V40.216C306.778 40.6854 304.474 41.368 303.194 42.264C301.914 43.16 301.274 44.2267 301.274 45.464C301.274 46.488 301.594 47.256 302.234 47.768C302.917 48.2374 303.813 48.472 304.922 48.472Z" stroke="#45874E" stroke-width="2" mask="url(#path-1-outside-1)"/>
</g>
</svg>
