<svg width="336" height="64" viewBox="0 0 336 64" fill="none" xmlns="http://www.w3.org/2000/svg">
<path opacity="0.4" d="M31.3228 36.8322L31.3527 36.304H30.8236H22.8293H22.3997L22.335 36.7286C22.1006 38.2662 21.4844 39.4262 20.6232 40.2006C19.7635 40.9737 18.6241 41.3949 17.281 41.3949C15.46 41.3949 13.9805 40.6393 12.9399 39.2093C11.8865 37.7617 11.2583 35.5857 11.2583 32.7272C11.2583 29.9106 11.8905 27.76 12.9457 26.327C13.9887 24.9105 15.469 24.1591 17.281 24.1591C18.7157 24.1591 19.8619 24.6297 20.7031 25.4265C21.549 26.2278 22.1193 27.3906 22.3348 28.8243L22.3988 29.25H22.8293H30.8236H31.3496L31.323 28.7247C31.1375 25.0679 29.6547 22.0129 27.1644 19.8765C24.6785 17.7439 21.2249 16.5568 17.1418 16.5568C12.3873 16.5568 8.50007 18.2079 5.80386 21.0982C3.11139 23.9845 1.64746 28.0622 1.64746 32.8466C1.64746 37.5899 3.08576 41.6578 5.77106 44.5447C8.46052 47.4361 12.3584 49.0966 17.1816 49.0966C21.3463 49.0966 24.7825 47.8734 27.2345 45.7075C29.689 43.5393 31.1172 40.4611 31.3228 36.8322ZM48.629 48V48.5H49.129H78.1631H78.6631V48V40.9602V40.4602H78.1631H62.0013L67.3505 35.2184C75.7211 27.5825 78.1262 23.634 78.1262 18.767C78.1262 15.0909 76.6202 11.9376 73.9732 9.71142C71.3327 7.49067 67.5869 6.21588 63.129 6.21588C58.7555 6.21588 55.0239 7.52366 52.3817 9.89872C49.7341 12.2787 48.221 15.6951 48.2313 19.8222L48.2325 20.321H48.7313H56.9046H57.4071L57.4046 19.8184C57.3952 17.9774 57.9708 16.543 58.9393 15.57C59.9083 14.5966 61.3183 14.0369 63.0693 14.0369C64.7568 14.0369 66.1919 14.5612 67.199 15.4693C68.2005 16.3725 68.8137 17.6859 68.8137 19.3437C68.8137 22.3398 67.0068 24.4246 63.2829 28.0086L48.7893 41.4286L48.629 41.577V41.7954V48ZM100.37 49.3949H100.371C105.632 49.3949 109.89 47.3856 112.822 43.6267C115.741 39.8839 117.307 34.4573 117.317 27.6768C117.327 20.9437 115.75 15.5799 112.819 11.8886C109.876 8.18264 105.609 6.21588 100.371 6.21588C95.1242 6.21588 90.8666 8.17742 87.9307 11.8815C85.007 15.5701 83.4353 20.9334 83.4252 27.6746C83.4051 34.4367 84.9665 39.859 87.8912 43.6046C90.8278 47.3656 95.1 49.3846 100.37 49.3949ZM107.527 27.6761V27.6772C107.537 32.3289 106.791 35.7492 105.517 37.9885C104.259 40.2012 102.494 41.2557 100.371 41.2557C98.2377 41.2557 96.4683 40.2003 95.2076 37.9882C93.9315 35.7491 93.1852 32.3289 93.195 27.6772C93.2049 23.0952 93.9557 19.7197 95.2289 17.5076C96.4867 15.3221 98.2465 14.2755 100.371 14.2755C102.485 14.2755 104.245 15.3217 105.504 17.5076C106.777 19.7195 107.527 23.0948 107.527 27.6761ZM138.925 49.3949H138.926C144.187 49.3949 148.444 47.3856 151.376 43.6267C154.296 39.8839 155.862 34.4573 155.872 27.6768C155.882 20.9437 154.305 15.5799 151.374 11.8886C148.43 8.18264 144.163 6.21588 138.926 6.21588C133.679 6.21588 129.421 8.17742 126.485 11.8815C123.562 15.5701 121.99 20.9334 121.98 27.6746C121.96 34.4367 123.521 39.859 126.446 43.6046C129.383 47.3656 133.655 49.3846 138.925 49.3949ZM146.082 27.6761V27.6772C146.092 32.3289 145.346 35.7492 144.072 37.9885C142.813 40.2012 141.049 41.2557 138.926 41.2557C136.792 41.2557 135.023 40.2003 133.762 37.9882C132.486 35.7491 131.74 32.3289 131.75 27.6772C131.76 23.0952 132.51 19.7197 133.784 17.5076C135.041 15.3221 136.801 14.2755 138.926 14.2755C141.04 14.2755 142.8 15.3217 144.058 17.5076C145.331 19.7195 146.082 23.0948 146.082 27.6761ZM179.731 7.2727V6.7727H179.231H171.137H170.992L170.869 6.85025L160.787 13.2338L160.554 13.381V13.6562V21.2926V22.1961L161.32 21.7162L170.12 16.1999V48V48.5H170.62H179.231H179.731V48V7.2727ZM223.371 17.4545V16.9545H222.871H201.951H201.451V17.4545V48V48.5H201.951H210.184H210.684V48V24.6164H222.871H223.371V24.1164V17.4545ZM258.4 56.9488V57.4488H258.9H267.173H267.673V56.9488V48.5H285.346V56.9488V57.4488H285.846H293.92H294.42V56.9488V41.2784V40.7784H293.92H289.687V17.4545V16.9545H289.187H265.761H265.299L265.263 17.4148L264.467 27.3978L264.966 27.4375L264.467 27.3979C264.228 30.4066 263.967 33.4108 263.438 35.8711C263.174 37.1001 262.847 38.1722 262.434 39.0306C262.049 39.8314 261.604 40.4157 261.095 40.7784H258.9H258.4V41.2784V56.9488ZM316.235 45.1361V48V48.5H316.735H324.769H325.269V48V27.3977C325.269 23.5944 323.647 20.8568 321.123 19.0883C318.622 17.3355 315.268 16.5568 311.803 16.5568C308.066 16.5568 304.928 17.4505 302.562 19.092C300.19 20.7376 298.622 23.116 298.01 26.0219L297.893 26.5774L298.459 26.6233L306.294 27.2597L306.703 27.2929L306.815 26.8981C307.322 25.1169 308.909 23.7414 311.763 23.7414C313.127 23.7414 314.128 24.0848 314.782 24.6569C315.427 25.2206 315.797 26.0614 315.797 27.1988V27.3182C315.797 27.7137 315.696 27.9709 315.517 28.17C315.323 28.3846 314.993 28.5826 314.439 28.758C313.316 29.1135 311.531 29.3039 308.852 29.5647C305.804 29.8456 302.834 30.5016 300.615 32.0024C298.36 33.5279 296.925 35.8981 296.925 39.4687C296.925 42.6204 298.056 45.0446 299.989 46.6723C301.911 48.2898 304.572 49.0767 307.567 49.0767C311.633 49.0767 314.509 47.5259 316.235 45.1361ZM240.744 49.0966C245.496 49.0966 249.393 47.4667 252.1 44.5917C254.804 41.72 256.278 37.6514 256.278 32.8466C256.278 28.0126 254.804 23.9339 252.1 21.0594C249.393 18.1814 245.496 16.5568 240.744 16.5568C235.992 16.5568 232.095 18.1814 229.388 21.0594C226.684 23.9339 225.21 28.0126 225.21 32.8466C225.21 37.6514 226.684 41.72 229.388 44.5917C232.095 47.4667 235.992 49.0966 240.744 49.0966ZM240.784 41.5341C238.825 41.5341 237.362 40.6489 236.367 39.1345C235.357 37.598 234.821 35.3933 234.821 32.7869C234.821 30.1805 235.357 27.9705 236.367 26.4288C237.363 24.909 238.827 24.0199 240.784 24.0199C242.698 24.0199 244.142 24.9057 245.13 26.427C246.131 27.9696 246.667 30.1807 246.667 32.7869C246.667 35.3931 246.131 37.5989 245.13 39.1363C244.143 40.6522 242.699 41.5341 240.784 41.5341ZM273.416 24.4772H280.693V40.7784H270.544C272.102 37.8073 272.722 33.441 273.14 27.4774C273.14 27.4758 273.14 27.4741 273.141 27.4724L273.416 24.4772ZM309.993 42.2301C308.76 42.2301 307.759 41.942 307.079 41.4326C306.417 40.9366 306.019 40.2026 306.019 39.1903C306.019 38.1605 306.432 37.4172 307.175 36.8645C307.943 36.2928 309.085 35.9119 310.54 35.7082C311.464 35.5791 312.696 35.4032 313.827 35.1736C314.392 35.0587 314.94 34.9288 315.417 34.782C315.568 34.7354 315.716 34.6861 315.857 34.6334V37.0824C315.857 39.9589 313.488 42.2301 309.993 42.2301Z" stroke="#45874E"/>
</svg>
